<?xml version="1.0" encoding="UTF-8" standalone="no"?>
<!-- Created with Inkscape (http://www.inkscape.org/) -->

<svg
   width="210mm"
   height="297mm"
   viewBox="0 0 210 297"
   version="1.1"
   id="svg1"
   xml:space="preserve"
   xmlns="http://www.w3.org/2000/svg"
   xmlns:svg="http://www.w3.org/2000/svg"><defs
     id="defs1" /><g
     id="layer1"><g
       id="neck"
       data-slug="neck"
       transform="matrix(-0.26458333,0,0,0.26458333,400.40361,-25.534966)"
       style="fill:#3f3f3f;fill-opacity:0.9;stroke:none"><path
         d="m 1022.74,290.63 a 0.62,0.61 25.9 0 1 -0.36,-1.03 q 1.71,-1.83 4.11,-3.11 c 8.19,-4.35 19.4,-8.3 23.38,-17.48 q 8.48,-19.57 8.22,-40.85 -0.05,-4.38 0.57,-5.76 c 1.98,-4.38 9.65,-3.66 13.85,-2.91 4.3,0.76 4.71,3.25 4.68,7.3 q -0.2,24.11 -0.88,48.2 c -0.12,4.25 1.6,15.84 -4.88,16.32 -14.57,1.08 -32.6,1.81 -48.69,-0.68 z"
         id="path1" /><path
         d="m 1095.75,291.46 c -4.3,-0.25 -4.9,-3.99 -4.95,-7.71 q -0.46,-29.47 -1,-58.94 c -0.13,-7.39 11.74,-6.23 15.99,-4.85 4.2,1.36 3.01,6.89 2.88,10.79 -0.28,8.88 5.15,41.1 15.32,46.78 q 8.6,4.81 17.27,9.51 1.97,1.07 3.26,2.36 a 0.8,0.79 63.6 0 1 -0.45,1.35 c -16.12,2.17 -33.78,1.56 -48.32,0.71 z"
         id="path2" /><path
         d="m 362.65,290.52 q -1.14,-1.37 -1.86,-3.41 -5.33,-15.15 -12.14,-29.75 c -2.37,-5.06 -1.07,-9.07 -7.92,-10.99 q -1.01,-0.28 0.02,-0.47 c 5.98,-1.08 15.25,0.91 21.33,2 q 2.37,0.42 4.81,-0.09 10.09,-2.13 20.45,-2.12 a 0.37,0.37 0 0 1 0.08,0.73 c -6.34,1.46 -5.45,5.64 -7.57,10.21 q -6.1,13.1 -11,26.69 -1.3,3.62 -2.9,6.81 a 1.99,1.99 0 0 1 -3.3,0.39 z"
         id="path31-7"
         style="fill:#3f3f3f;fill-opacity:0.9;stroke:none"
         transform="matrix(-1,0,0,1,2080.4353,0.02939672)" /><path
         d="m 354.01,315.07 q -3.49,-3.65 -5.9,-8.23 c -6.46,-12.3 -11.03,-25.42 -16.12,-38.77 -2.92,-7.66 -1.98,-19.44 -1.61,-27.6 q 0.03,-0.58 0.47,-0.21 c 9.06,7.39 11.33,17.46 15.67,27.62 5.4,12.61 15.4,33.31 9.11,46.92 a 1,0.99 35.5 0 1 -1.62,0.27 z"
         id="path32-9"
         style="fill:#3f3f3f;fill-opacity:0.9;stroke:none"
         transform="matrix(-1,0,0,1,2080.4353,0.02939672)" /><path
         d="m 345.77,316 c -4.12,-1.96 -12.78,-6.76 -15.07,-11.38 -4.29,-8.65 -2.69,-16.02 -2.28,-25.25 a 1,1 0 0 1 1.95,-0.28 c 4.29,12.42 10.5,24.4 15.71,36.61 q 0.23,0.55 -0.31,0.3 z"
         id="path33-5"
         style="fill:#3f3f3f;fill-opacity:0.9;stroke:none"
         transform="matrix(-1,0,0,1,2080.4353,0.02939672)" /><path
         d="m 372.75,314.71 c -5.78,-9.67 1.71,-31.17 6.17,-40.68 5.95,-12.68 8.21,-24.68 18.35,-33.9 a 0.49,0.49 0 0 1 0.82,0.35 c 0.28,8.68 0.84,19.39 -1.97,27.72 -5.26,15.58 -11.39,33.46 -21.42,46.62 a 1.18,1.18 0 0 1 -1.95,-0.11 z"
         id="path34-4"
         style="fill:#3f3f3f;fill-opacity:0.9;stroke:none"
         transform="matrix(-1,0,0,1,2080.4353,0.02939672)" /><path
         d="m 398.01,278.49 a 0.5,0.49 35.5 0 1 0.87,-0.14 c 2.01,2.7 1.62,11.6 1.61,15.13 -0.04,12.42 -8.2,17.45 -17.9,22.58 a 0.35,0.35 0 0 1 -0.48,-0.46 c 5.51,-12.02 11.85,-24.46 15.9,-37.11 z"
         id="path35-3"
         style="fill:#3f3f3f;fill-opacity:0.9;stroke:none"
         transform="matrix(-1,0,0,1,2080.4353,0.02939672)" /></g><g
       id="trapezius"
       data-slug="trapezius"
       transform="matrix(-0.26458333,0,0,0.26458333,400.40361,-25.534966)"
       style="fill:#3f3f3f;fill-opacity:0.9;stroke:none"><path
         d="m 1071.06,308.94 c 5.6,4.92 6.96,17.83 7.43,24.88 q 1.5,22.3 0.93,44.68 -1.2,46.76 -5.66,94 a 0.57,0.56 3.7 0 1 -0.59,0.51 q -0.68,-0.03 -0.94,-1.01 -4.29,-15.9 -9.79,-25.19 c -10.24,-17.31 -18.8,-31.84 -25.59,-49.4 -10.19,-26.38 -15.6,-54.28 -26.46,-80.58 q -3.07,-7.43 -7.61,-14.07 -0.3,-0.43 0.2,-0.6 12.47,-4.28 25.48,-4.85 c 5.54,-0.25 12.15,0.86 18.32,1.41 9.7,0.87 16.77,3.6 24.28,10.22 z"
         id="path3" /><path
         d="m 1163.98,302.12 a 0.43,0.43 0 0 1 0.22,0.65 q -7.08,10.77 -11.41,23.37 c -10.53,30.61 -17.8,62.94 -31.3,91.07 -5.11,10.64 -15.17,25.22 -20.12,36.26 q -4.08,9.08 -6.59,18.83 a 0.77,0.77 0 0 1 -1.51,-0.12 q -4.27,-45.15 -5.52,-90.99 c -0.56,-20.28 -0.74,-39.92 2.75,-60.43 1.04,-6.13 2.77,-9.98 7.85,-13.85 9.8,-7.48 18.02,-7.73 30.1,-9.11 12.02,-1.39 23.92,0.4 35.53,4.32 z"
         id="path4" /><path
         d="m 285.01,307.01 a 0.89,0.89 0 0 1 -0.11,-1.64 q 19.44,-9.61 35.65,-24.8 1.68,-1.57 3.31,-0.31 0.4,0.32 0.45,0.82 1.25,12.61 -1.57,25.41 c -0.74,3.32 -2.55,4.23 -5.9,4.48 q -16.02,1.24 -31.83,-3.96 z"
         id="path36-2"
         style="fill:#3f3f3f;fill-opacity:0.9;stroke:none"
         transform="matrix(-1,0,0,1,2080.4353,0.02939672)" /><path
         d="m 414,311.19 c -5.24,-0.12 -7.81,-0.64 -8.9,-6.27 q -2.33,-12.09 -1.17,-23.94 0.06,-0.61 0.61,-0.89 1.66,-0.85 3.65,0.99 16.12,14.87 33.97,23.63 3.65,1.79 -0.27,2.89 -13.88,3.91 -27.89,3.59 z"
         id="path37-3"
         style="fill:#3f3f3f;fill-opacity:0.9;stroke:none"
         transform="matrix(-1,0,0,1,2080.4353,0.02939672)" /></g><g
       id="deltoids"
       data-slug="deltoids"
       transform="matrix(-0.26458333,0,0,0.26458333,400.40361,-25.534966)"
       style="fill:#3f3f3f;fill-opacity:0.9;stroke:none"><path
         d="m 980.66,319.58 c 0.19,0.14 0.55,0.19 0.65,0.32 a 0.8,0.8 0 0 1 -0.16,1.15 c -6.78,4.75 -15.26,9.77 -20.03,15.58 -6.41,7.78 -8.76,16.96 -9.44,27.04 -0.39,5.92 -1.68,9.5 -5.59,13.43 -10.02,10.08 -19.04,16.47 -31.14,20.41 q -0.75,0.25 -0.75,-0.55 0.19,-18.4 -0.09,-36.3 -0.14,-9.4 1.07,-14.22 c 4.04,-16.07 22.8,-33.85 39.68,-35.64 9.99,-1.06 17.34,2.46 25.8,8.78 z"
         id="path5" /><path
         d="m 1227.3,316.44 c 14.62,9.44 25.48,21.03 25.46,39.51 q -0.02,20.56 -0.01,41.37 a 0.37,0.37 0 0 1 -0.51,0.35 c -5.08,-2.06 -10.41,-3.98 -14.9,-6.97 -7.84,-5.24 -21.14,-14.95 -21.77,-24.95 -0.69,-10.75 -2.81,-20.85 -9.76,-29.25 -4.68,-5.65 -12.96,-10.58 -19.6,-15.26 q -1.23,-0.87 0.01,-1.71 c 4.6,-3.13 9.91,-6.78 15.25,-7.98 q 13.58,-3.03 25.83,4.89 z"
         id="path6" /><path
         d="m 274.06,311.69 q 3.94,2.77 4.33,8.14 0.04,0.48 -0.38,0.73 c -9.98,5.88 -24.35,7.45 -28.82,19.75 -2.31,6.36 -0.97,17.35 -1.43,23.68 q -0.55,7.51 -5.73,14.07 -10.37,13.11 -13.81,16.67 c -3.41,3.53 -6.81,1.76 -10.69,-0.47 -15.42,-8.87 -24.95,-25.45 -22.52,-43.22 2.05,-14.92 12.71,-25.79 24.06,-35.02 16.99,-13.82 35.58,-17.99 54.99,-4.33 z"
         id="path38-4"
         style="fill:#3f3f3f;fill-opacity:0.9;stroke:none"
         transform="matrix(-1,0,0,1,2080.4353,0.02939672)" /><path
         d="m 450.39,320.75 q -0.95,-0.52 -0.7,-1.58 c 1.57,-6.61 5.8,-9.1 12.14,-11.9 24.99,-11.03 43.76,3.33 60.17,20.74 20.73,21.99 11.81,56.44 -14.82,68.19 -4.41,1.94 -6.79,-1.03 -9.81,-4.51 -5.81,-6.7 -13.46,-14.12 -15.99,-22.8 -3.93,-13.43 4.32,-27.54 -9.64,-37.62 q -8.22,-5.93 -17.99,-9.08 -1.84,-0.59 -3.36,-1.44 z"
         id="path39-1"
         style="fill:#3f3f3f;fill-opacity:0.9;stroke:none"
         transform="matrix(-1,0,0,1,2080.4353,0.02939672)" /></g><g
       id="upper-back"
       data-slug="upper-back"
       transform="matrix(-0.26458333,0,0,0.26458333,400.40361,-25.534966)"
       style="fill:#3f3f3f;fill-opacity:0.9;stroke:none"><path
         d="m 987.06,381.44 c -8.48,-5.06 -14.14,-13.28 -18.82,-22.92 q -5.3,-10.92 -6.46,-14.04 c -1.49,-4.01 35.14,-19.22 39.61,-20.97 q 2.75,-1.08 4.33,-0.72 c 4.33,0.96 6.61,9.96 7.46,13.7 q 5.43,23.89 14.65,55.74 0.78,2.7 -0.88,4.39 c -5.37,5.5 -34.69,-12.08 -39.89,-15.18 z"
         id="path7" /><path
         d="m 1017.44,583.31 q -9.11,-9.57 -16.97,-22.03 -2.28,-3.62 -2.91,-7.25 c -3.28,-18.82 -5.77,-38.04 -10.52,-56.55 -3.53,-13.73 -4.74,-25.19 -6.61,-41.43 -0.85,-7.35 -5.67,-13.34 -8.22,-18.75 q -4.93,-10.47 -6.44,-22.88 -0.33,-2.72 1.89,-1.11 c 7.25,5.27 16.36,6.16 26.91,7.56 8.86,1.19 23.41,-3.18 28.94,-10.76 3.34,-4.58 4.7,-6.5 8.86,-8.77 a 0.67,0.66 -26.4 0 1 0.92,0.3 q 10.02,21.8 19.93,43.78 c 2.56,5.69 12.11,15.88 10.77,21.83 -3.65,16.09 -9.88,31.96 -16.24,47.13 -9.72,23.21 -18.61,46.72 -27.2,70.36 q -0.24,0.67 -0.88,0.35 -1.03,-0.52 -2.23,-1.78 z"
         id="path8" /><path
         d="m 1017.71,404.73 c -23.86,13.25 -54.31,7.11 -60.45,-22.75 -1.2,-5.81 -2.5,-15.84 0.64,-20.55 3.63,-5.44 7.17,4.18 8.17,6.14 7.71,15.14 31.62,29.16 48.2,31.13 q 1.84,0.21 5.26,2.06 0.4,0.21 0.26,0.64 -0.86,2.65 -2.08,3.33 z"
         id="path9" /><path
         d="m 1141.45,397.63 a 2.17,2.14 -3.6 0 1 -1.88,-1.64 q -0.71,-2.97 0.18,-5.95 8.74,-29.19 11.75,-43.29 c 1.73,-8.11 3.07,-16.77 6.94,-22.08 1.92,-2.62 4.28,-2.27 7.19,-1.15 q 20.52,7.9 39.09,18.77 a 1.37,1.36 25.9 0 1 0.58,1.67 c -6.05,15.46 -12.98,30.84 -28.43,39.45 -9.45,5.26 -25.83,15.17 -35.42,14.22 z"
         id="path10" /><path
         d="m 1149.69,404.8 q -2.04,-1.15 -2.45,-3.5 -0.09,-0.53 0.41,-0.75 c 4.64,-2.04 9.78,-2.51 14.63,-3.87 11.01,-3.1 22.03,-10.83 30.34,-18.57 q 6.33,-5.89 7.58,-8.93 c 1.02,-2.49 3.79,-9.5 7,-9.46 q 0.52,0.01 0.87,0.39 2.71,3.01 2.81,7.2 c 0.33,13.77 -2.24,26.93 -13.26,35.95 -13.88,11.36 -33.12,9.94 -47.93,1.54 z"
         id="path11" /><path
         d="m 1161.19,419.98 c 6.1,1.57 11.6,0.99 17.75,0.06 8.36,-1.27 14.83,-2.76 21.34,-7.27 a 0.54,0.53 74.1 0 1 0.84,0.47 q -0.64,11.88 -5.76,22.85 c -2.42,5.2 -6.64,10.84 -8.04,16.67 q -1.02,4.24 -1.43,8.92 -1.64,18.72 -6.34,37.47 c -4.73,18.91 -7.13,38.67 -10.8,57.85 q -0.24,1.24 -2.2,4.3 c -4.57,7.14 -12.22,19.43 -19.34,23.88 a 0.44,0.43 -25.6 0 1 -0.64,-0.22 c -8.26,-22.57 -16.6,-45.11 -25.91,-67.23 -6.67,-15.85 -13.27,-32.14 -17.27,-48.42 q -1.58,-6.41 2.91,-12.01 5.21,-6.51 8.57,-14.14 9.25,-21 19.01,-41.64 a 0.47,0.47 0 0 1 0.65,-0.21 q 6.17,3.37 9.51,9.64 c 2.45,4.6 12.22,7.75 17.15,9.03 z"
         id="path12" /></g><g
       id="triceps"
       data-slug="triceps"
       transform="matrix(-0.26458333,0,0,0.26458333,400.40361,-25.534966)"
       style="fill:#3f3f3f;fill-opacity:0.9;stroke:none"><path
         d="m 931.03,442.29 c -2.01,2.57 -6.52,9.71 -10.12,9.17 q -0.52,-0.08 -0.8,-0.52 -1.35,-2.09 -1.84,-4.44 c -2.25,-10.87 -3.28,-22.88 1.35,-33.38 5.45,-12.33 18.27,-23.68 29.61,-31.2 a 0.47,0.46 68.7 0 1 0.71,0.32 l 6.42,38.52 q 0.09,0.54 -0.26,0.97 c -0.47,0.58 -1.12,1.52 -1.71,1.94 q -9.11,6.58 -18.08,13.36 -2.9,2.2 -5.28,5.26 z"
         id="path13" /><path
         d="m 958.15,427.11 a 0.41,0.41 0 0 1 0.55,0.27 q 4.44,16.16 -2.23,31.41 -3.37,7.73 -5.91,19.98 c -1.51,7.28 -8.93,12.21 -11.81,18.82 -2.42,5.56 -2.41,12.5 -3.51,16.66 -2.14,8.06 -8.51,14.15 -13.91,20.13 a 0.93,0.93 0 0 1 -1.54,-0.25 q -0.57,-1.3 -0.75,-2.89 c -1.93,-16.91 2.52,-33.52 5.71,-49.99 2.16,-11.21 -1.54,-24.15 9.68,-34.59 q 9.54,-8.86 19.55,-17.23 c 1.3,-1.08 2.7,-1.72 4.17,-2.32 z"
         id="path14" /><path
         d="m 903.57,519.67 a 1.84,1.82 -5.4 0 1 -1.12,-0.92 q -3.54,-6.97 -3.68,-15.19 c -0.37,-21.2 3.8,-42.53 9.5,-63.44 q 0.33,-1.23 0.92,-0.1 4.64,8.78 8.6,18.67 c 2.88,7.21 4.19,12.98 1.88,20.57 q -6.07,19.96 -14.02,39.23 -0.65,1.58 -2.08,1.18 z"
         id="path15" /><path
         d="m 1213.94,424.56 q -2.02,-1.5 -3.08,-3.02 -0.31,-0.46 -0.22,-1 3.32,-19.22 6.42,-38.46 0.09,-0.56 0.56,-0.25 14.9,9.82 24.8,22.71 c 9.8,12.75 9.72,30.37 5.41,45.13 a 2.62,2.62 0 0 1 -3.76,1.57 c -3.26,-1.77 -6.22,-6.71 -8.62,-9.67 -5.24,-6.46 -14.75,-12 -21.51,-17.01 z"
         id="path16" /><path
         d="m 1246.2,534.5 q -0.95,-0.3 -1.75,-1.22 c -4.65,-5.4 -9.13,-9.88 -11.46,-15.51 -2.96,-7.13 -1.37,-15.5 -5.64,-22.09 -4.06,-6.26 -8.72,-9.91 -10.89,-17.58 -1.62,-5.68 -2.81,-11.46 -4.97,-17.02 -4.56,-11.69 -6.45,-20.86 -3.33,-33.56 a 0.59,0.58 -74 0 1 0.75,-0.42 q 1.69,0.56 3.22,1.79 11.23,9.08 21.54,19.18 c 5.39,5.28 6.92,10.13 7.24,18.16 0.9,22.52 10.62,44.97 6.59,67.49 a 1.01,1 13.9 0 1 -1.3,0.78 z"
         id="path17" /><path
         d="m 1258.43,439.96 q 2.01,5.38 3.1,10.68 c 3.58,17.36 7.13,34.77 6.89,52.61 q -0.11,8.3 -3.94,15.61 a 1.61,1.6 33.4 0 1 -2.44,0.5 c -1.45,-1.19 -1.9,-3.58 -2.43,-4.94 q -9.23,-23.41 -13.19,-38.15 c -2.63,-9.81 6.82,-27.63 11.53,-36.35 q 0.28,-0.5 0.48,0.04 z"
         id="path18" /><path
         d="m 206.2,514.2 c -5.41,-0.67 -6.55,-7.29 -4.69,-11.42 11.08,-24.55 22.84,-50.62 30.54,-75.51 1.37,-4.41 3.08,-8.59 3.95,-12.45 q 2.94,-13.12 5.79,-26.26 0.42,-1.98 1.82,-3.39 a 0.52,0.52 0 0 1 0.81,0.1 q 1.04,1.69 1.94,4.56 4.63,14.65 5.15,24.92 c 0.57,11.36 -5.11,24.55 -8.65,35.5 q -7.69,23.78 -20.25,45.39 c -2.45,4.23 -11.51,19.18 -16.41,18.56 z"
         id="path29-8"
         style="fill:#3f3f3f;fill-opacity:0.9;stroke:none"
         transform="matrix(-1,0,0,1,2080.4353,0.02939672)" /><path
         d="m 517.69,512.06 c -20.07,-22.12 -28.95,-51.73 -38.01,-79.03 -3.27,-9.87 -3.58,-19.18 -1.34,-29.38 1.29,-5.88 2.49,-13.03 5.61,-18.52 q 0.32,-0.57 0.72,-0.06 1.35,1.67 1.79,3.69 c 2.67,12.33 5.14,24.49 9.07,36.52 8.25,25.28 18.58,49.8 31.1,77.2 q 1.42,3.1 1.05,5.33 c -0.81,4.89 -5.46,9.25 -9.99,4.25 z"
         id="path30-9"
         style="fill:#3f3f3f;fill-opacity:0.9;stroke:none"
         transform="matrix(-1,0,0,1,2080.4353,0.02939672)" /></g><g
       id="lower-back"
       data-slug="lower-back"
       transform="matrix(-0.26458333,0,0,0.26458333,400.40361,-25.534966)"
       style="fill:#3f3f3f;fill-opacity:0.9;stroke:none"><path
         d="m 986.76,627.1 c -3.13,-13.13 -7.31,-49.77 7.27,-58.07 2.4,-1.37 4.8,-0.82 6.7,1.29 6.15,6.8 16.22,18.56 18.77,28.15 a 1.35,1.3 52.6 0 1 -0.11,0.98 c -2.51,4.53 -9.96,8.09 -15.83,11.36 q -5.47,3.06 -11.33,10.52 c -1.23,1.56 -2.6,4.3 -4.5,6.06 a 0.59,0.58 -28.2 0 1 -0.97,-0.29 z"
         id="path19" /><path
         d="m 1023.15,607.96 a 2.06,2.04 -74.3 0 1 -0.94,-1.69 c -0.17,-10.98 5.04,-24.58 8.79,-34.9 q 15.61,-42.83 36,-83.59 a 1.11,1.1 -62.5 0 1 1.51,-0.48 c 1.25,0.66 3.21,12.98 3.46,15.08 q 6.94,59.25 2.82,116.88 -0.62,8.66 -3.1,19.37 -0.13,0.53 -0.59,0.24 z"
         id="path20" /><path
         d="m 1090.76,581.75 q 0.62,-5.16 0,-10.27 0.22,-29.79 3.05,-59.5 1.1,-11.58 3.91,-22.88 0.31,-1.27 0.44,-1.43 1.08,-1.43 1.88,0.17 23.38,46.97 40.14,96.18 c 1.8,5.28 5.84,16.69 4.38,22.96 a 1.64,1.64 0 0 1 -0.71,1.01 l -47.63,30.72 q -1.12,0.72 -1.34,-0.6 -4.54,-28 -4.12,-56.36 z"
         id="path21" /><path
         d="m 1151.19,603.31 q -5.39,-3.38 -2.19,-9.05 8.03,-14.22 17.88,-24.62 c 3.49,-3.69 9.04,0.89 10.97,3.99 q 2.92,4.66 3.8,10.14 3.5,21.77 -1.21,43.02 a 0.96,0.96 0 0 1 -1.77,0.28 c -6.92,-11.85 -16.03,-16.56 -27.48,-23.76 z"
         id="path22" /></g><g
       id="forearm"
       data-slug="forearm"
       transform="matrix(-0.26458333,0,0,0.26458333,400.40361,-25.534966)"
       style="fill:#3f3f3f;fill-opacity:0.9;stroke:none"><path
         d="m 878.44,534.38 a 0.15,0.15 0 0 1 0.18,-0.13 c 0.47,0.12 6.68,15.77 7.07,17.22 q 6.66,24.73 5.52,50.29 c -0.4,8.9 -3.45,17.35 -6.64,25.55 -7.94,20.38 -17.41,41.88 -29.59,60.09 a 1.04,1.02 -54.2 0 1 -1.49,0.25 c -0.34,-0.26 0.37,-1.45 0.47,-1.83 q 5.58,-20.8 8.97,-42.08 8.65,-54.15 15.51,-109.36 z"
         id="path23" /><path
         d="m 893,518.93 a 0.39,0.38 24.6 0 1 0.69,-0.25 q 5.97,7.83 13.11,15.27 c 8.08,8.4 1.41,28.73 -5.88,37.12 a 1.05,1.05 0 0 1 -1.63,-0.05 c -6.09,-7.93 -5.41,-18.74 -4.97,-28.44 0.36,-8.12 -0.76,-15.7 -1.32,-23.65 z"
         id="path24" /><path
         d="m 869.06,547.19 c 2.16,0.36 1.67,6.21 1.57,7.8 q -2.54,38.84 -9.11,77.16 c -3.04,17.71 -8.47,41.3 -22.09,54.09 a 0.38,0.38 0 0 1 -0.62,-0.41 c 14.51,-40.44 19,-84.26 26.8,-126.31 q 0.9,-4.88 1.48,-10.82 0.18,-1.81 1.97,-1.51 z"
         id="path25" /><path
         d="m 864.24,682.58 q 15.09,-28.18 25.12,-58.55 c 8.14,-24.63 13.67,-42.4 20.79,-60.35 q 3.31,-8.37 12.08,-9.63 c 1.35,-0.2 3.68,-0.75 4.86,0.21 q 1.13,0.93 0.61,2.3 -5.8,15.45 -12.04,29.88 c -5.79,13.39 -14.92,28.68 -20.32,40.14 -6.12,13 -28.07,59.18 -31.64,56.64 a 0.21,0.21 0 0 1 0.03,-0.36 q 0.15,-0.07 0.34,-0.13 0.12,-0.04 0.17,-0.15 z"
         id="path26" /><path
         d="m 1272.99,519.43 c 0.27,-0.33 0.33,-0.75 0.75,-1.05 a 0.32,0.32 0 0 1 0.5,0.29 c -0.7,7.22 -1.77,14.33 -1.66,21.54 0.13,8.94 2.13,24 -5.35,31.17 q -0.37,0.35 -0.73,0 c -7.63,-7.55 -14.2,-28.29 -6.52,-36.92 q 6.6,-7.41 13.01,-15.03 z"
         id="path27" /><path
         d="m 1312.82,688.04 c -4.78,-6.01 -7.2,-10.8 -11.76,-19.56 q -12.39,-23.79 -21.03,-47.53 c -4.86,-13.36 -5.22,-26.17 -3.83,-40.19 q 1.13,-11.5 2.69,-19.53 2.72,-13.98 9.59,-26.79 a 0.17,0.17 0 0 1 0.32,0.06 q 7.26,63.12 17.22,120.49 2.43,14.04 7.03,30.55 c 0.22,0.79 0.74,1.33 0.36,2.4 a 0.34,0.34 0 0 1 -0.59,0.1 z"
         id="path28" /><path
         d="m 1296.52,558.51 c -0.22,-2.94 -1.44,-10.25 2,-12.04 a 0.62,0.61 -18.4 0 1 0.89,0.44 q 6.25,35.69 12.21,71.07 c 3.88,23 8.77,46.2 16.73,68.19 a 0.29,0.29 0 0 1 -0.47,0.31 c -11.67,-10.67 -18.09,-31.15 -20.89,-45.98 q -7.27,-38.55 -10.47,-81.99 z"
         id="path29" /><path
         d="m 1303.5,683.6 c -2.89,-0.66 -10.16,-13.21 -12.11,-17.02 -8.8,-17.21 -16.92,-34.81 -25.84,-51.89 -5.36,-10.27 -10.98,-20.49 -15.39,-30.95 q -5.86,-13.86 -11.07,-27.8 a 1.63,1.62 79.5 0 1 1.5,-2.2 c 13.02,-0.16 15.5,7.18 19.65,18.81 q 9.04,25.33 17.43,50.89 9.65,29.37 23.82,56.84 0.87,1.69 2.13,3.12 0.24,0.28 -0.12,0.2 z"
         id="path30" /><path
         d="m 127.23,683.05 c -4.07,-2.12 1.27,-27.07 2.25,-31.57 4.98,-23.03 9.17,-46.17 13.91,-69.25 q 1.53,-7.47 2.13,-15.13 c 0.93,-12.09 0.81,-22.15 6.23,-31.59 7.1,-12.33 13.54,-29.16 26.1,-36.73 a 1.98,1.97 62.7 0 1 2.84,0.91 c 1.92,4.48 1.93,8.28 2.06,14.15 0.44,19.77 -1.3,41.04 -8.72,59.67 -11,27.62 -22.22,55.21 -32.62,82.91 -4.04,10.76 -7.56,20.66 -12.82,26.39 q -0.59,0.65 -1.36,0.24 z"
         id="path62-0"
         style="fill:#3f3f3f;fill-opacity:0.9;stroke:none"
         transform="matrix(-1,0,0,1,2080.4353,0.02939672)" /><path
         d="m 201.5,527.4 a 0.84,0.84 0 0 1 0.67,0.65 c 3.98,17.15 -2.93,39.36 -10.95,54.41 -4.6,8.63 -13.06,20.43 -18.21,31.33 q -13.21,27.92 -24.58,56.64 -2.51,6.35 -6.61,11.02 a 1.43,1.43 0 0 1 -2.5,-0.81 q -0.36,-3.78 0.84,-7.17 10.31,-29.18 21.57,-57.99 c 6.32,-16.18 14.55,-31.65 20.66,-47.87 3.69,-9.82 5.36,-22.36 7.32,-30.62 1.49,-6.27 4.19,-11.06 11.79,-9.59 z"
         id="path63-9"
         style="fill:#3f3f3f;fill-opacity:0.9;stroke:none"
         transform="matrix(-1,0,0,1,2080.4353,0.02939672)" /><path
         d="m 207.33,540.4 a 0.6,0.59 -63.1 0 1 1.03,-0.34 l 5.38,6.02 q 0.4,0.45 0.33,1.06 -0.52,4.1 -1.29,5.84 -6.91,15.65 -13.69,31.35 c -5.41,12.53 -16.33,28.4 -23.51,44.89 -8.3,19.08 -16.03,39.32 -26.75,57.16 a 0.36,0.36 0 0 1 -0.62,0 l -0.19,-0.32 q -0.17,-0.28 -0.06,-0.59 10.08,-29.91 23.05,-58.65 2.9,-6.42 5.47,-11.21 c 4.62,-8.59 10.86,-16.17 14.62,-23.02 q 13.23,-24.13 16.23,-52.19 z"
         id="path64-0"
         style="fill:#3f3f3f;fill-opacity:0.9;stroke:none"
         transform="matrix(-1,0,0,1,2080.4353,0.02939672)" /><path
         d="m 600.08,683.04 c -5,-4.14 -8.97,-15.46 -11.29,-21.56 -5.82,-15.25 -11.38,-30.55 -17.58,-45.7 q -9.15,-22.39 -18.02,-44.89 c -5.58,-14.19 -7.32,-31.42 -7.99,-46.57 -0.29,-6.44 -0.68,-19.43 2.67,-25.02 a 1.71,1.71 0 0 1 2.25,-0.63 c 6.72,3.52 11.29,9.96 14.87,16.5 q 6.25,11.38 12.68,22.66 c 1.97,3.45 2.93,7.66 3.41,12.06 1.16,10.6 1.55,21.29 3.66,31.65 3.93,19.29 7.38,38.63 11.47,57.92 1.5,7.07 9.3,39.08 5.12,43.5 a 0.91,0.91 0 0 1 -1.25,0.08 z"
         id="path65-0"
         style="fill:#3f3f3f;fill-opacity:0.9;stroke:none"
         transform="matrix(-1,0,0,1,2080.4353,0.02939672)" /><path
         d="m 586.58,681.46 q -4.35,-4.47 -6.75,-10.61 -11.35,-28.91 -24.59,-57.01 c -5.72,-12.13 -14.32,-22.86 -19.97,-35.1 -7.1,-15.36 -12.9,-33.32 -9.27,-50.31 a 1.44,1.43 -87.1 0 1 1.23,-1.12 c 7.47,-0.88 9.29,2.88 11.02,9.2 3.39,12.42 4.76,25.91 9.75,36.7 15.55,33.65 27.61,64.94 39.31,98.42 1.13,3.24 2.05,5.47 1.62,9.04 a 1.38,1.37 26.3 0 1 -2.35,0.79 z"
         id="path66-6"
         style="fill:#3f3f3f;fill-opacity:0.9;stroke:none"
         transform="matrix(-1,0,0,1,2080.4353,0.02939672)" /><path
         d="m 579.58,686.43 q -3.92,-5.77 -6.87,-12.13 -8.05,-17.34 -19.75,-44.5 -2.68,-6.24 -6.46,-13.62 c -5.14,-10.05 -13.15,-22.36 -17.34,-31.85 q -9.55,-21.68 -13.66,-31.36 -1.09,-2.58 -1.33,-5.87 -0.04,-0.61 0.37,-1.07 l 5.24,-5.85 a 0.69,0.69 0 0 1 1.2,0.4 q 2.74,27.05 15.49,50.75 1.7,3.17 8.26,12.86 7.02,10.39 12.18,21.88 8.71,19.41 20.19,50.1 2.22,5.92 3.13,9.98 a 0.36,0.36 0 0 1 -0.65,0.28 z"
         id="path67-1"
         style="fill:#3f3f3f;fill-opacity:0.9;stroke:none"
         transform="matrix(-1,0,0,1,2080.4353,0.02939672)" /></g><g
       id="gluteal"
       data-slug="gluteal"
       transform="matrix(-0.26458333,0,0,0.26458333,400.40361,-25.534966)"
       style="fill:#3f3f3f;fill-opacity:0.9;stroke:none"><path
         d="m 1045.06,626.19 q 1.42,0.61 4.11,4.4 0.27,0.39 -0.19,0.52 c -14.47,4.12 -26.13,7.4 -38.13,15.77 q -15.37,10.71 -30.53,21.6 a 0.55,0.54 74.9 0 1 -0.86,-0.5 c 1.19,-13.13 10.35,-35.23 20.46,-45.06 9.14,-8.88 34.99,-1.11 45.14,3.27 z"
         id="path31" /><path
         d="m 1007.94,762.81 c -16.94,-16.64 -29.37,-37.66 -31.47,-61 -2.06,-22.84 15.63,-34.95 32.18,-45.71 8.2,-5.33 46.51,-27.32 54.37,-17.65 5.92,7.29 13.38,15.84 15.44,25.21 q 3.01,13.63 2.44,27.6 -0.94,22.59 -6.27,44.49 c -2.43,9.96 -2.9,17.16 -2.59,26.75 0.47,14.83 -18.52,17.18 -29.12,14.07 -6.38,-1.87 -13.79,-4.83 -21.35,-6.25 q -7.39,-1.38 -13.63,-7.51 z"
         id="path32" /><path
         d="m 1117.94,631.04 q -0.13,-0.03 -0.27,-0.06 -0.12,-0.02 -0.06,-0.13 2.58,-4.2 7.05,-5.92 12.71,-4.87 26.13,-5.81 c 12.93,-0.91 17.1,3.08 23.28,13.06 5.71,9.22 13.32,24.7 13.44,36.06 q 0.01,0.76 -0.61,0.32 -16.65,-11.74 -33.2,-23.51 c -10.03,-7.14 -23.72,-10.58 -35.76,-14.01 z"
         id="path33" /><path
         d="m 1124.12,776.61 c -9.28,2.74 -26.75,1.29 -28.86,-10.88 -1.05,-6.03 0.27,-14.88 -1.3,-23.27 q -0.54,-2.94 -2.15,-9.35 c -3.2,-12.81 -4.02,-23.33 -5.08,-35.27 -1.07,-12.03 -0.57,-22 1.64,-33.17 q 1.1,-5.6 4.19,-10.41 8.74,-13.58 11.87,-16.59 c 4.96,-4.77 15.84,0.18 21.19,2.11 q 19.7,7.12 40.17,21.43 c 9.59,6.7 19.29,14.31 22.93,25.17 4.81,14.37 -0.65,33.88 -7.42,46.87 q -7.79,14.97 -21.39,28.9 -6.74,6.9 -15.26,8.36 c -7.07,1.21 -13.68,4.08 -20.53,6.1 z"
         id="path34" /></g><g
       id="adductors"
       data-slug="adductors"
       transform="matrix(-0.26458333,0,0,0.26458333,400.40361,-25.534966)"
       style="fill:#3f3f3f;fill-opacity:0.9;stroke:none"><path
         d="m 1070.06,785.19 c 2.95,1.36 1.8,10.43 1.49,13.04 q -3.98,33.27 -14.66,64.61 a 0.39,0.39 0 0 1 -0.76,-0.17 c 0.9,-7.05 2.31,-14.29 2.16,-20.92 q -0.68,-30.14 -18.71,-54.52 -0.29,-0.39 0.18,-0.49 c 7.42,-1.52 23.53,-4.69 30.3,-1.55 z"
         id="path35" /><path
         d="m 1127.24,787.66 c -15.99,21.49 -22.3,48.51 -16.08,74.83 a 0.47,0.46 -63.2 0 1 -0.88,0.29 q -1.99,-4.69 -3.65,-10.24 -8.29,-27.75 -11.6,-56.54 c -0.65,-5.71 -1.1,-11.77 6.87,-11.9 q 13,-0.19 25.68,2.83 a 0.31,0.24 41.2 0 1 0.1,0.53 q -0.12,0.01 -0.27,0.07 -0.1,0.04 -0.17,0.13 z"
         id="path36" /><path
         d="m 280.26,647.4 c 11.65,10.74 22.18,21.04 31.02,34.3 15.82,23.72 27.55,49.72 34.01,77.58 1.34,5.79 -6.14,20.34 -12.62,20.22 q -0.52,-0.01 -0.72,-0.49 -0.67,-1.59 -1.21,-3.13 c -14.68,-41.71 -27.96,-79.71 -46.87,-117.01 -1.9,-3.74 -3.05,-7.33 -4.06,-11.2 a 0.27,0.27 0 0 1 0.45,-0.27 z"
         id="path40-3"
         style="fill:#3f3f3f;fill-opacity:0.9;stroke:none"
         transform="matrix(-1,0,0,1,2080.4353,0.02939672)" /><path
         d="m 331.64,898.32 q -0.17,0.57 -0.23,-0.02 c -2.23,-25.01 -8.47,-50.09 -14.25,-74.53 q -19.4,-82.1 -42.46,-163.69 -0.58,-2.08 0.33,-0.13 c 19.88,42.53 38.94,86.51 51.64,132.07 9.49,34.06 15.59,71.67 4.97,106.3 z"
         id="path41-8"
         style="fill:#3f3f3f;fill-opacity:0.9;stroke:none"
         transform="matrix(-1,0,0,1,2080.4353,0.02939672)" /><path
         d="m 334.46,789.17 c 1.56,-2.63 14.39,-20.38 16.2,-20.37 a 1.71,1.7 -89.2 0 1 1.7,1.76 q -1.12,34.88 -7.4,68.95 c -0.38,2.06 -1.41,4.27 -2.16,6.23 q -0.24,0.62 -0.34,-0.04 -3.68,-25.45 -8.44,-50.7 c -0.34,-1.79 -0.63,-4 0.44,-5.83 z"
         id="path42-7"
         style="fill:#3f3f3f;fill-opacity:0.9;stroke:none"
         transform="matrix(-1,0,0,1,2080.4353,0.02939672)" /><path
         d="m 395.47,779.4 c -5.7,1.33 -11.34,-11.87 -12.46,-15.86 q -0.61,-2.18 -0.02,-4.65 10.17,-42.64 35.06,-78.81 c 9.47,-13.77 18.83,-22.36 29.85,-32.56 q 0.55,-0.5 0.4,0.22 -1.12,5.7 -3.73,10.83 c -19.44,38.38 -33.3,79.2 -47.77,119.65 a 1.84,1.83 -86.4 0 1 -1.33,1.18 z"
         id="path43-4"
         style="fill:#3f3f3f;fill-opacity:0.9;stroke:none"
         transform="matrix(-1,0,0,1,2080.4353,0.02939672)" /><path
         d="m 453.65,658.99 q 0.67,-1.43 0.23,0.09 -26.73,93.75 -48.63,189.74 c -1.98,8.7 -3.66,17.9 -5.44,26.84 q -2.19,11.05 -2.78,22.43 a 0.15132746,0.15132746 0 0 1 -0.3,0.04 c -8.18,-24.48 -6.74,-51.98 -1.87,-76.86 11.07,-56.49 34.44,-110.42 58.79,-162.28 z"
         id="path44-2"
         style="fill:#3f3f3f;fill-opacity:0.9;stroke:none"
         transform="matrix(-1,0,0,1,2080.4353,0.02939672)" /><path
         d="m 377.91,768.67 c 1.49,0.84 1.76,1.49 2.66,2.66 q 6.16,8.04 12.23,16.13 c 1.88,2.52 1.97,4.18 1.38,7.45 q -4.57,25.23 -8.43,50.57 -0.11,0.71 -0.4,0.05 -1.89,-4.29 -2.54,-8.09 -5.57,-32.28 -6.98,-65.01 -0.09,-2 0.81,-3.44 a 0.95,0.94 30.8 0 1 1.27,-0.32 z"
         id="path45-7"
         style="fill:#3f3f3f;fill-opacity:0.9;stroke:none"
         transform="matrix(-1,0,0,1,2080.4353,0.02939672)" /></g><g
       id="hamstring"
       data-slug="hamstring"
       transform="matrix(-0.26458333,0,0,0.26458333,400.40361,-25.534966)"
       style="fill:#3f3f3f;fill-opacity:0.9;stroke:none"><path
         d="m 963.27,741.53 a 0.71,0.7 31.7 0 1 1.19,-0.28 q 1.51,1.62 2.47,3.99 c 4.6,11.41 8.93,22.66 11.07,34.72 3.38,19.14 4.84,38.23 3.12,57.74 q -1.68,19.06 -2.99,38.15 c -0.51,7.55 -0.88,15.71 0.07,23.18 q 1.08,8.54 1.39,17.57 a 0.52,0.52 0 0 1 -0.98,0.25 q -1.03,-2.07 -1.8,-4.62 -5.13,-16.92 -7.25,-34.49 -5.01,-41.45 -6.86,-83.17 -1.09,-24.75 -0.07,-49.51 0.06,-1.59 0.64,-3.53 z"
         id="path37" /><path
         d="m 1030.2,791.53 q 0.17,-0.36 0.38,-0.03 c 5.26,8.11 9.94,16.15 12.47,25.64 3.12,11.72 5.87,24.36 4.31,36.24 q -0.5,3.8 -3.57,14.02 c -10.75,35.81 -12.83,74.2 -18.5,111.1 q -0.82,5.4 -2.55,10.55 -0.23,0.68 -0.59,0.07 c -4.72,-8.07 -5.18,-25.09 -5.34,-34.81 -0.7,-43.69 1.92,-87.82 6.38,-131.28 1.41,-13.74 1.99,-21.15 7.01,-31.5 z"
         id="path38" /><path
         d="m 998.81,761.94 q 14.07,14.17 20.1,33.62 c 0.98,3.15 -0.78,9.61 -0.93,12.91 q -1.3,27.63 -2.3,55.27 c -0.55,15.31 -1.54,30.27 -5.12,45.26 q -8.62,36.18 -22.76,68.73 -3.65,8.41 -10.15,17.19 -0.45,0.61 -0.41,-0.14 c 0.11,-1.93 0.82,-4.15 0.99,-5.71 q 2.45,-22.72 6.08,-45.26 c 2.83,-17.66 4.18,-35.95 4.33,-52.37 0.33,-36.43 -0.75,-73.34 1.47,-109.68 0.33,-5.32 1.07,-16.16 4.7,-20.25 q 0.33,-0.36 0.81,-0.45 1.95,-0.37 3.19,0.88 z"
         id="path39" /><path
         d="m 1052.52,855.62 a 0.04031129,0.04031129 0 0 1 0.08,0.01 q 1.07,9.9 2.17,19.87 0.33,3.04 -2.37,14.18 c -3.83,15.8 -8.15,31.11 -8.9,47.47 -0.99,21.61 -3.11,45.66 -9.92,66.3 q -1.49,4.52 -0.87,-0.2 3.38,-25.36 3.7,-51.99 c 0.05,-3.74 -0.4,-10.32 0.2,-15.58 2.19,-19.2 7.39,-38.25 11.75,-57.05 1.78,-7.64 2.93,-15.21 4.16,-23.01 z"
         id="path40" /><path
         d="m 1183.25,947.53 c 2.57,14.85 4.32,31.11 6.22,46.14 q 0.35,2.74 -1.11,0.39 c -14.67,-23.67 -23.34,-52.15 -30.55,-79.32 q -5.08,-19.14 -5.97,-39.05 -1.36,-30.37 -2.44,-60.74 c -0.22,-6.09 -2.56,-15.63 -0.55,-21.57 q 5.87,-17.35 18.96,-31.07 c 10.77,-11.28 10.17,46.55 10.16,48.97 -0.13,41.09 -0.45,74.18 1.91,110.07 0.57,8.75 1.88,17.53 3.37,26.18 z"
         id="path41" /><path
         d="m 1136.43,791.52 q 0.27,-0.42 0.49,0.03 c 3.12,6.46 4.84,12.26 5.68,19.83 5.07,45.8 8.05,94.61 7.56,140.76 -0.13,11.8 -0.46,26.22 -5.13,37.08 a 0.44,0.44 0 0 1 -0.83,-0.06 q -2.51,-9.14 -3.69,-18.41 -3.54,-27.64 -7.36,-55.24 c -2.49,-18 -5.47,-35.67 -11.09,-52.26 q -4.35,-12.82 -2.08,-26.75 c 1.76,-10.77 3.58,-21.61 8.46,-31.16 q 3.58,-6.99 7.99,-13.82 z"
         id="path42" /><path
         d="m 1115.03,856.73 c 2.03,18.72 7.11,37.44 11.47,55.77 2.25,9.46 3.94,19.51 3.95,30.11 q 0.02,31.7 4.08,63.16 0.16,1.26 -0.29,0.07 -2.7,-7.15 -4.19,-14.6 c -4.44,-22.21 -5.71,-40.52 -6.87,-61.23 -0.24,-4.24 -1.19,-9.64 -2.23,-13.92 q -3.94,-16.25 -7.7,-32.55 c -2.09,-9.04 0.08,-18.69 1.6,-27.66 q 0.07,-0.38 0.32,-0.09 0.16,0.19 0.01,0.4 -0.19,0.24 -0.15,0.54 z"
         id="path43" /><path
         d="m 1202.61,741.08 a 0.44,0.44 0 0 1 0.72,0.03 c 0.52,0.82 0.9,1.86 0.95,2.91 q 0.73,15.98 0.37,31.97 -1.16,52.95 -7.85,105.49 -1.88,14.74 -5.97,29.04 -1,3.52 -1.92,4.95 -1.57,2.47 -1.39,-0.37 c 0.58,-9.44 1.83,-19.17 1.71,-28.16 -0.32,-24.52 -4.94,-49.11 -3.95,-72.75 0.69,-16.54 2.5,-33.51 7.54,-49.38 q 2.99,-9.4 6.61,-18.6 0.74,-1.88 3.18,-5.13 z"
         id="path44" /></g><g
       id="calves"
       data-slug="calves"
       transform="matrix(-0.26458333,0,0,0.26458333,400.40361,-25.534966)"
       style="fill:#3f3f3f;fill-opacity:0.9;stroke:none"><path
         d="m 982.69,1149.31 c -3.07,-2.23 -3.98,-6.24 -5.24,-11.03 -7.19,-27.14 -7.88,-53.18 -6.67,-82.78 q 1.03,-25.29 9.23,-47.45 c 4.77,-12.89 15.33,-24.77 23.79,-36 q 0.82,-1.09 0.74,0.27 c -1.37,22.86 -2.72,45.67 -3.11,68.49 -0.52,30.56 -1.51,61.11 -0.42,91.68 0.24,6.83 -2.77,16.29 -10.08,18.37 q -4.39,1.25 -8.24,-1.55 z"
         id="path45" /><path
         d="m 983.99,1163.56 c 7.15,-5.59 16.16,-0.63 17,8.23 q 4.31,45.02 5.22,90.26 c 0.16,8.25 -0.8,15.79 -2.19,23.65 q -0.45,2.52 -1.43,3.66 -0.95,1.11 -1.22,-0.33 c -5.03,-26.7 -8.28,-53.49 -11.87,-80.36 q -1.68,-12.52 -3.24,-18.71 -2.04,-8.12 -5.53,-18.24 c -1.03,-3 0.8,-6.25 3.26,-8.16 z"
         id="path46" /><path
         d="m 1013.69,1150.31 c -4.8,-2.61 -4.66,-16.17 -4.36,-20.75 2.34,-36.49 3.44,-73.94 1.04,-110.45 -1.03,-15.55 0.02,-31.49 0.62,-47.06 q 0.03,-0.66 0.25,-0.03 c 2.28,6.45 4.52,12.88 7.39,19.11 5.12,11.14 11.5,22.91 14.83,33.92 q 2.34,7.74 3.97,16.46 5.3,28.43 5.62,56.09 c 0.2,18.32 -7.9,40 -22.63,51.79 q -3.42,2.73 -6.73,0.92 z"
         id="path47" /><path
         d="m 1014.14,1164.37 c 7,-1.83 14.1,2.2 14.11,9.95 q 0.06,29.04 -5.62,57.41 c -3.87,19.28 -6.24,38.23 -8.43,57.48 a 0.37003378,0.37003378 0 0 1 -0.74,-0.01 q -3.12,-43.48 -3.58,-86.64 -0.15,-14.16 0.76,-28.3 c 0.18,-2.83 0.02,-8.98 3.5,-9.89 z"
         id="path48" /><path
         d="m 1172.94,1149.31 c -6.06,-4.56 -6.94,-11.4 -6.8,-19.4 0.96,-52.67 -0.49,-105.31 -3.54,-157.9 q -0.04,-0.72 0.41,-0.16 7.96,10.07 15.43,20.44 c 9.11,12.64 13.61,28.98 15.78,44.21 4.96,34.71 3.75,72.94 -5.97,106.5 -1.97,6.82 -9.18,10.93 -15.31,6.31 z"
         id="path49" /><path
         d="m 1144.41,1147.33 q -17.19,-17.37 -20.08,-40.86 -0.89,-7.22 -0.13,-19.97 1.18,-20.06 4.69,-41.33 c 2.33,-14.1 5.8,-25.22 12.41,-38.61 q 8.19,-16.59 14.35,-34.15 a 0.14,0.13 -37.7 0 1 0.26,0.03 q 1.01,15.71 1.26,31.44 c 0.18,11.61 -1.34,24.91 -1.58,36.43 -0.72,34.7 1.22,62.05 2.06,93.19 0.17,6.32 -1.1,26.1 -13.24,13.83 z"
         id="path50" /><path
         d="m 1173.74,1161.73 c 6.88,-2 14.34,3.23 11.98,10.91 -2.24,7.3 -4.78,14.44 -5.99,21.96 -5.07,31.52 -8.04,63.18 -14.13,94.6 a 0.72,0.71 -61.9 0 1 -1.21,0.37 c -0.14,-0.14 -0.35,-0.39 -0.4,-0.59 q -3.53,-13.58 -3.19,-28.23 1.04,-44.67 5.06,-87.04 c 0.58,-6.1 1.93,-10.25 7.88,-11.98 z"
         id="path51" /><path
         d="m 1154.32,1165 a 1.58,1.57 -84.6 0 1 0.97,1.18 c 0.79,4.42 1.42,8.78 1.57,13.4 0.96,29.17 -0.47,62.66 -2.04,90.23 q -0.78,13.79 -1.39,19.52 a 0.23,0.23 0 0 1 -0.45,0 c -2.79,-21.25 -5.41,-41.99 -9.64,-63.03 -3.44,-17.08 -4.29,-34.91 -4.68,-52.3 -0.19,-8.37 8.99,-11.61 15.66,-9 z"
         id="path52" /><path
         d="m 252.09,1032.57 c 0.24,-3.71 2.14,-22.17 4.63,-24.18 a 1.03,1.02 -17.9 0 1 1.67,0.85 c -0.45,7.89 -1.27,16 -1.49,23.45 q -0.57,18.93 -0.66,37.88 -0.02,3.63 0.34,6.85 c 2.08,18.76 5.56,37.32 9.3,55.8 3.82,18.84 9.13,37.64 13.11,56.63 q 2.44,11.68 2.08,17.95 c -0.32,5.7 -3.08,20.49 -8.51,23.92 a 0.62,0.62 0 0 1 -0.84,-0.16 q -1.2,-1.65 -0.95,-3.55 c 0.92,-7.26 1.45,-14.15 -0.3,-21.52 q -8.25,-34.74 -13.62,-59.06 c -1.86,-8.44 -3.17,-17.18 -3.93,-26.3 q -3.69,-44.24 -0.83,-88.56 z"
         id="path58-2"
         style="fill:#3f3f3f;fill-opacity:0.9;stroke:none"
         transform="matrix(-1,0,0,1,2080.4353,0.02939672)" /><path
         d="m 315.01,1025.17 a 0.1603122,0.1603122 0 0 1 0.32,0.02 c 4.06,25.75 8.98,52.72 8.71,77.81 q -0.13,12.06 -5.74,26.31 c -7.2,18.3 -8.93,38.57 -15.95,56.93 q -0.18,0.48 -0.21,-0.03 c -1.87,-34.47 -5.67,-65.91 -8.56,-103.28 q -0.97,-12.49 4.44,-23.14 7.47,-14.69 15.14,-29.29 c 0.81,-1.55 1.35,-3.62 1.85,-5.33 z"
         id="path59-4"
         style="fill:#3f3f3f;fill-opacity:0.9;stroke:none"
         transform="matrix(-1,0,0,1,2080.4353,0.02939672)" /><path
         d="m 455.5,1231.67 c -7.13,-5.81 -9.23,-24.34 -8.2,-31.86 1.41,-10.32 4.63,-23.14 7.98,-36.33 q 9.54,-37.46 15.15,-75.74 c 2.86,-19.5 1.53,-40.15 0.75,-59.8 -0.22,-5.67 -0.98,-12.51 -1.23,-18.75 a 0.97,0.97 0 0 1 1.87,-0.4 c 0.35,0.86 0.92,1.76 1.12,2.68 q 2.96,14.31 3.31,20.53 2.37,43.28 -0.49,84.75 -1.21,17.42 -5.43,35.77 -6.33,27.51 -12.84,54.98 -2.01,8.49 -0.11,18.36 c 0.36,1.9 0.11,3.95 -0.68,5.55 a 0.79,0.79 0 0 1 -1.2,0.26 z"
         id="path60-8"
         style="fill:#3f3f3f;fill-opacity:0.9;stroke:none"
         transform="matrix(-1,0,0,1,2080.4353,0.02939672)" /><path
         d="m 412.77,1025.44 a 0.14,0.14 0 0 1 0.27,-0.04 c 4.88,11.62 10.93,22.01 17.28,34.78 4.07,8.19 4.71,14.41 4.1,24.25 -2.13,34.3 -6.27,68.85 -8.45,101.59 q -0.05,0.69 -0.31,0.05 -1.48,-3.67 -2.28,-6.75 c -4.34,-16.75 -8.78,-38.38 -16.39,-57.57 q -1.4,-3.55 -2.2,-10.11 c -1.78,-14.73 -0.2,-31.24 2.04,-45.88 q 3.06,-20.02 5.94,-40.32 z"
         id="path61-6"
         style="fill:#3f3f3f;fill-opacity:0.9;stroke:none"
         transform="matrix(-1,0,0,1,2080.4353,0.02939672)" /></g><g
       id="ankles"
       data-slug="ankles"
       transform="matrix(-0.26458333,0,0,0.26458333,400.40361,-25.534966)"
       style="fill:#3f3f3f;fill-opacity:0.9;stroke:none"><path
         d="m 998.25,1320.52 c -4.62,0.24 -8.17,-1.08 -8.78,-6.28 -1.6,-13.81 -0.75,-28.85 -2.16,-42.41 q -0.39,-3.74 0.24,-7.03 a 0.69,0.69 0 0 1 1.23,-0.28 c 2.35,3.15 4.22,5.75 5.14,9.66 1.54,6.57 1.91,22.57 9.97,24.09 q 13.33,2.5 15.93,-10.47 c 0.92,-4.57 1,-12.33 5.05,-17.25 q 0.42,-0.51 0.42,0.15 c 0.11,14.39 0.4,30.86 -3.08,44.54 -0.79,3.13 -3.31,4.23 -6.51,4.4 q -8.73,0.45 -17.45,0.88 z"
         id="path53" /><path
         d="m 1149.5,1319.51 c -6.93,-0.63 -6.82,-18.08 -7.14,-23.7 q -0.73,-12.53 -0.59,-25.09 0.01,-0.71 0.45,-0.15 2.74,3.49 3.29,7.17 c 1.67,11.25 3.21,25.34 19.7,19.99 4.87,-1.58 7.03,-18.57 7.89,-23.21 0.79,-4.2 2.74,-7 5.28,-10.13 a 0.56,0.56 0 0 1 0.98,0.22 c 1.12,4.6 0.04,12.39 -0.37,17.26 -0.92,10.77 -0.32,21.48 -1.52,32.37 q -0.7,6.23 -7.01,6.18 -12.13,-0.11 -20.96,-0.91 z"
         id="path54" /><path
         d="m 291.88,1208.11 c 5.48,-1.03 11.85,5.55 13.38,10.37 q 2.45,7.74 1.47,16.83 -0.09,0.83 -0.45,0.08 c -4.31,-9.05 -8,-16.99 -15.39,-23.88 a 1.98,1.98 0 0 1 0.99,-3.4 z"
         id="path80"
         style="fill:#3f3f3f;fill-opacity:0.9;stroke:none"
         transform="matrix(-1,0,0,1,2080.4353,0.02939672)" /><path
         d="m 275.88,1270.94 c -4.41,-3.87 -7.4,-7.17 -4.91,-13.37 q 4.78,-11.92 5.49,-21.32 0.62,-8.27 6.22,-12.84 c 9,-7.33 20.8,15 23.1,22.1 2.55,7.91 4.83,16.36 4.49,24.5 -0.31,7.14 -2.02,17.4 -6.49,23.1 q -0.3,0.38 -0.53,-0.05 c -5.67,-10.74 -18.6,-14.41 -27.37,-22.12 z"
         id="path81"
         style="fill:#3f3f3f;fill-opacity:0.9;stroke:none"
         transform="matrix(-1,0,0,1,2080.4353,0.02939672)" /><path
         d="m 430.92,1209.12 c 2.24,-1.35 10.54,-2.02 6.02,2.65 q -9.99,10.32 -14.82,23.8 a 0.28,0.28 0 0 1 -0.55,-0.08 c -0.52,-10.27 -0.48,-20.45 9.35,-26.37 z"
         id="path82"
         style="fill:#3f3f3f;fill-opacity:0.9;stroke:none"
         transform="matrix(-1,0,0,1,2080.4353,0.02939672)" /><path
         d="m 445.01,1223.26 c 8.45,6.56 6.46,16.66 9.35,25.59 q 1.76,5.43 3.47,10.88 c 3.84,12.26 -27.75,21.49 -32.21,32.42 q -1.02,2.51 -2.17,0.05 c -6.91,-14.82 -6.79,-29.36 -1.78,-44.58 q 2.82,-8.57 8.02,-16.04 c 3.02,-4.35 9.61,-12.76 15.32,-8.32 z"
         id="path83"
         style="fill:#3f3f3f;fill-opacity:0.9;stroke:none"
         transform="matrix(-1,0,0,1,2080.4353,0.02939672)" /></g><g
       id="feet"
       data-slug="feet"
       transform="matrix(-0.26458333,0,0,0.26458333,400.40361,-25.534966)"
       style="fill:#3f3f3f;fill-opacity:0.9;stroke:none"><path
         d="m 962.87,1327.38 q -0.62,-0.51 -0.05,-1.07 l 1.99,-1.99 q 0.39,-0.39 0.93,-0.41 25.66,-0.82 51.26,1 1.34,0.1 4.43,1.47 0.46,0.2 0.69,0.64 1.84,3.5 2.87,7.23 c 2.32,8.38 -6.63,7.24 -12.23,6.68 q -15.37,-1.53 -30.5,-4.56 c -8.21,-1.65 -13.33,-3.95 -19.39,-8.99 z"
         id="path55" /><path
         d="m 1154.35,1341.35 c -12.48,1.36 -13.27,-3.88 -8.67,-13.37 1.82,-3.76 12.72,-3.65 16.39,-3.77 q 19.44,-0.63 38.9,-0.44 c 2.41,0.02 3.31,1 4.61,2.76 q 0.32,0.44 -0.09,0.79 c -5.43,4.67 -10.52,7.17 -17.95,8.74 q -16.46,3.47 -33.19,5.29 z"
         id="path56" /><path
         d="m 264.5,1334.5 c -3.98,-0.34 -18.59,-4.25 -19.04,-9.44 a 1.4,1.4 0 0 1 0.27,-0.94 c 9.66,-13.03 20.9,-25.49 28.65,-39.78 q 0.25,-0.47 0.78,-0.37 9.76,1.78 17.73,7.65 a 1.19,1.18 43 0 1 0.07,1.86 c -1.32,1.11 -1.65,2.62 -1.06,4.35 2.96,8.57 -0.92,16.55 -4.81,25.34 -1.79,4.06 -1.76,8.99 -2.81,13.62 a 1.56,1.56 0 0 1 -1.99,1.14 q -8.36,-2.64 -17.79,-3.43 z"
         id="path84"
         style="fill:#3f3f3f;fill-opacity:0.9;stroke:none"
         transform="matrix(-1,0,0,1,2080.4353,0.02939672)" /><path
         d="m 291.87,1340.12 c -2.25,-2.64 -2.07,-5.93 -0.78,-9.35 q 3.34,-8.88 4.02,-18.35 0.43,-6.02 1.25,-8.74 1.32,-4.37 3.45,-8.22 a 0.66,0.65 53.7 0 1 1.21,0.19 q 1.97,9.26 6.28,17.3 c 2.59,4.85 -0.82,11.49 -2.92,16.14 a 1.81,1.78 -35.8 0 0 -0.16,0.94 q 0.42,4.3 -1.9,7.94 -0.22,0.33 -0.61,0.43 l -8.79,2.06 a 1.06,1.06 0 0 1 -1.05,-0.34 z"
         id="path85"
         style="fill:#3f3f3f;fill-opacity:0.9;stroke:none"
         transform="matrix(-1,0,0,1,2080.4353,0.02939672)" /><path
         d="m 444.66,1337.65 q -1.08,-1.3 -1.28,-3.09 c -0.52,-4.48 -0.73,-8.39 -2.77,-12.64 -3.51,-7.31 -7.06,-16.37 -4.43,-23.19 0.77,-1.99 0.92,-3.79 -0.76,-5.13 a 1.29,1.28 46.4 0 1 0.04,-2.04 q 7.96,-5.76 17.59,-7.64 0.46,-0.1 0.69,0.32 c 7.25,13.1 17.21,24.83 26.45,36.56 q 1.11,1.41 2.51,3.8 a 1.17,1.14 -51 0 1 0.09,0.95 c -1.75,5.01 -12.93,7.89 -17.77,8.55 q -9.87,1.36 -19.54,3.82 a 0.82,0.8 -26.2 0 1 -0.82,-0.27 z"
         id="path86"
         style="fill:#3f3f3f;fill-opacity:0.9;stroke:none"
         transform="matrix(-1,0,0,1,2080.4353,0.02939672)" /><path
         d="m 426.94,1338.55 c -2.01,-0.34 -2.96,-5.48 -3,-7.12 -0.15,-6.02 -6.29,-11.65 -3.12,-17.89 q 4.35,-8.53 6.34,-17.75 a 0.78,0.78 0 0 1 1.47,-0.17 c 2.12,4.52 4.18,9.08 4.35,14.33 q 0.35,10.43 3.97,20.24 c 1.19,3.22 1.52,5.83 0.39,8.78 a 2.32,2.31 19.3 0 1 -2.87,1.38 q -3.44,-1.09 -7.53,-1.8 z"
         id="path87"
         style="fill:#3f3f3f;fill-opacity:0.9;stroke:none"
         transform="matrix(-1,0,0,1,2080.4353,0.02939672)" /></g><g
       id="hands"
       data-slug="hands"
       transform="matrix(-0.26458333,0,0,0.26458333,400.40361,-25.534966)"
       style="fill:#3f3f3f;fill-opacity:0.9;stroke:none"><path
         d="m 789.41,726.84 c 3.98,-6.79 9.89,-14.6 16.56,-20.14 a 0.31,0.31 0 0 1 0.48,0.35 c -4.39,11.06 -5.38,21.94 -14.02,30.72 -5.82,5.93 -10.7,9.81 -19.04,8.57 q -0.55,-0.08 -0.59,-0.63 c -0.24,-3.07 -0.26,-7.29 3.1,-8.85 4.82,-2.26 10.72,-5.28 13.51,-10.02 z"
         id="path57" /><path
         d="m 807.27,745.31 c 17.61,3.49 2.75,13.52 -0.73,18.99 q -10.05,15.82 -21.86,30.37 -1.56,1.92 -2.52,-0.58 A 2.41,2.33 -55.4 0 1 782,793.13 q 0.2,-5.26 2.75,-9.71 c 6.94,-12.09 13.12,-24.52 19.72,-36.79 q 0.91,-1.7 2.8,-1.32 z"
         id="path58" /><path
         d="m 819.3,744.82 c -7.79,-6.06 -14.51,-12.4 -11.88,-23.38 3.07,-12.83 14.66,-20.7 25.14,-26.38 9.57,-5.18 37.61,-0.75 37.6,13.68 q -0.01,16.24 -3.67,31.99 c -2.38,10.26 -4.49,16.44 -16.87,16.3 -10.71,-0.13 -21.93,-5.7 -30.32,-12.21 z"
         id="path59" /><path
         d="m 827.99,758.27 a 2.08,2.07 26.6 0 1 0.91,2.73 q -10.47,22.03 -19.66,45.04 -2.25,5.63 -8.23,6.74 a 1.45,1.44 84.3 0 1 -1.7,-1.4 q -0.1,-4.29 1.51,-8.31 7.3,-18.34 13.86,-36.96 c 0.74,-2.1 1.53,-6.08 2.97,-8.96 q 0.26,-0.5 0.82,-0.57 5.05,-0.64 9.52,1.69 z"
         id="path60" /><path
         d="m 841.68,762.32 a 0.76,0.75 -79.1 0 1 0.6,0.89 q -4.51,23.14 -9.28,45.87 c -0.73,3.49 -2.09,5.73 -5.85,5.43 q -0.52,-0.04 -0.61,-0.56 -0.74,-4.54 -0.32,-7.21 2.89,-18.57 5.59,-37.18 0.38,-2.65 1.67,-8.22 0.13,-0.54 0.68,-0.44 z"
         id="path61" /><path
         d="m 854.75,799.53 a 0.78,0.78 0 0 1 -1.37,-0.02 q -0.91,-1.75 -1.15,-4.29 -1.62,-16.58 -1.2,-33.25 a 0.84,0.84 0 0 1 0.61,-0.78 l 7.09,-1.93 q 0.59,-0.16 0.56,0.45 -0.58,14.77 -1.12,29.56 c -0.14,4.06 -1.54,6.86 -3.42,10.26 z"
         id="path62" /><path
         d="m 1336.39,751.96 c -8.72,4.49 -29.38,10.28 -33.61,-3.6 q -5.68,-18.65 -5.83,-38.24 c -0.06,-7.59 4.01,-11.75 11.09,-14.08 8.85,-2.92 19.02,-5.3 27.54,-0.35 8.74,5.09 18.39,11.28 22.45,21.01 3.05,7.3 3.34,13.66 -1.78,20.01 -5.21,6.47 -12.49,11.45 -19.86,15.25 z"
         id="path63" /><path
         d="m 1374.32,737.5 c -8.05,-8.14 -9.61,-19.67 -13.85,-30.75 a 0.22,0.22 0 0 1 0.35,-0.24 q 10.3,8.96 17.1,20.77 c 2.57,4.47 9.08,7.59 13.57,9.79 3.11,1.52 2.96,5.9 2.71,8.73 q -0.05,0.52 -0.57,0.59 c -8.87,1.17 -13.48,-2.98 -19.31,-8.89 z"
         id="path64" /><path
         d="m 1383.76,795.45 c -0.59,-0.21 -0.96,-0.17 -1.39,-0.68 -8.84,-10.3 -15.85,-21.5 -23.44,-32.41 -2.81,-4.02 -8.81,-7.64 -7.45,-13.14 q 0.15,-0.6 0.7,-0.84 l 7.85,-3.44 q 0.66,-0.29 1.13,0.25 2.36,2.73 4.17,6.49 7.36,15.23 16.89,31.47 c 2.33,3.96 3.04,7.59 2.32,11.85 a 0.58,0.58 0 0 1 -0.78,0.45 z"
         id="path65" /><path
         d="m 1365.79,812.62 c -2.7,-0.28 -6.42,-2.66 -7.49,-5.33 q -8.74,-21.76 -19.85,-45.74 c -2.12,-4.58 6.55,-5.17 9.12,-5.21 1.8,-0.03 1.93,0.71 2.38,2.18 q 5.72,18.34 15.35,42.12 c 0.74,1.84 4.81,12.43 0.49,11.98 z"
         id="path66" /><path
         d="m 1308.16,759.17 7.44,2.1 q 0.23,0.07 0.24,0.31 0.75,16.26 -0.86,32.41 -0.3,3 -1.25,5.48 a 0.79,0.79 0 0 1 -1.42,0.12 q -3.9,-6.58 -3.82,-13.9 0.16,-13.07 -0.83,-26.11 -0.05,-0.57 0.5,-0.41 z"
         id="path67" /><path
         d="m 1340.07,814.35 c -2.7,0.82 -4.99,-1.16 -5.54,-3.71 q -5.06,-23.49 -9.82,-47.47 a 0.77,0.76 -10.7 0 1 0.62,-0.9 l 7.52,-1.38 q 0.59,-0.11 0.73,0.47 c 2.08,8.53 3.26,19.85 4.22,25.75 q 2.09,12.92 3.19,21.14 0.34,2.54 -0.33,5.46 a 0.86,0.84 88.4 0 1 -0.59,0.64 z"
         id="path68" /><path
         d="m 100.98,745.85 c -9.03,-6.62 -15.78,-13.18 -13.3,-24.59 2.67,-12.29 15.01,-20.6 25.37,-26.21 7.76,-4.21 18.22,-1.68 26.15,0.97 7.14,2.39 11.11,6.16 11.1,13.86 q -0.04,18.51 -4.75,36.37 c -5.47,20.76 -34.48,6.99 -44.57,-0.4 z"
         id="path68-8"
         style="fill:#3f3f3f;fill-opacity:0.9;stroke:none"
         transform="matrix(-1,0,0,1,2080.4353,0.02939672)" /><path
         d="m 53.81,746.32 a 0.91,0.91 0 0 1 -0.74,-0.95 c 0.14,-2.49 -0.23,-6.34 2.25,-7.8 4.66,-2.71 11.37,-5.53 14.15,-10.3 q 6.32,-10.86 16.56,-20.3 1.27,-1.17 0.64,0.44 c -1.45,3.73 -2.86,7.21 -3.87,11.59 -2.76,11.9 -14.62,30 -28.99,27.32 z"
         id="path69-9"
         style="fill:#3f3f3f;fill-opacity:0.9;stroke:none"
         transform="matrix(-1,0,0,1,2080.4353,0.02939672)" /><path
         d="m 87.21,745.05 c 1.44,0.46 8.14,2.66 8.61,4.55 1.26,5.12 -4.42,8.54 -7,12.25 -7.73,11.1 -15.12,23.38 -24.25,33.28 a 1.22,1.22 0 0 1 -2.11,-0.86 c 0.11,-3.93 0.38,-7.1 2.43,-10.65 q 10.27,-17.71 19.31,-36.11 0.32,-0.65 2.13,-2.27 0.38,-0.35 0.88,-0.19 z"
         id="path70-3"
         style="fill:#3f3f3f;fill-opacity:0.9;stroke:none"
         transform="matrix(-1,0,0,1,2080.4353,0.02939672)" /><path
         d="m 108.11,758.12 a 2.16,2.16 0 0 1 1.07,2.87 Q 98.69,783.54 89.26,806.8 c -1.45,3.56 -4.37,5.15 -7.82,6.04 a 1.35,1.34 -8.1 0 1 -1.69,-1.26 c -0.11,-3.05 0.37,-5.87 1.58,-8.9 q 8.1,-20.28 15.15,-40.96 c 0.41,-1.2 0.62,-3.33 1.69,-4.85 a 1.21,1.21 0 0 1 0.91,-0.49 q 4.72,-0.21 9.03,1.74 z"
         id="path71"
         style="fill:#3f3f3f;fill-opacity:0.9;stroke:none"
         transform="matrix(-1,0,0,1,2080.4353,0.02939672)" /><path
         d="m 134.09,799.9 q -1.16,-1.7 -1.41,-3.73 -2.1,-17.07 -1.18,-34.29 0.03,-0.6 0.61,-0.75 l 6.93,-1.85 q 0.68,-0.19 0.65,0.52 -0.51,10.9 -0.85,21.71 c -0.28,8.58 0.1,12.65 -4.17,18.4 a 0.36,0.36 0 0 1 -0.58,-0.01 z"
         id="path72"
         style="fill:#3f3f3f;fill-opacity:0.9;stroke:none"
         transform="matrix(-1,0,0,1,2080.4353,0.02939672)" /><path
         d="m 108.13,814.65 a 1.48,1.48 0 0 1 -1.62,-1.47 c -0.02,-2.83 -0.14,-5.66 0.32,-8.53 q 2.9,-17.79 5.4,-35.65 0.53,-3.84 1.58,-7.56 a 0.66,0.66 0 0 1 0.76,-0.48 l 7.26,1.24 a 0.97,0.97 0 0 1 0.78,1.14 q -4.76,23.96 -9.1,46.26 -0.9,4.64 -5.38,5.05 z"
         id="path73"
         style="fill:#3f3f3f;fill-opacity:0.9;stroke:none"
         transform="matrix(-1,0,0,1,2080.4353,0.02939672)" /><path
         d="m 591.31,755.99 c -8.06,-2.93 -8.66,-9.76 -10.28,-17.06 q -3.22,-14.42 -3.1,-29.3 0.04,-4.06 1.46,-6.55 c 4.34,-7.57 18.16,-9.91 25.63,-10.35 8.75,-0.51 18.37,6.96 24.99,12.27 q 8.92,7.17 10.74,17.52 c 2.45,13.89 -12.11,23.41 -22.7,29.04 -6.95,3.69 -18.63,7.39 -26.74,4.43 z"
         id="path74"
         style="fill:#3f3f3f;fill-opacity:0.9;stroke:none"
         transform="matrix(-1,0,0,1,2080.4353,0.02939672)" /><path
         d="m 641.97,706.78 q 10.85,9.65 17.61,21.91 c 1.63,2.97 9.74,6.76 12.87,8.59 2.9,1.7 3.03,4.81 2.55,8.5 q -0.06,0.42 -0.48,0.49 c -8.16,1.32 -11.99,-1.93 -17.72,-7.23 -10.35,-9.58 -10.5,-20.33 -15.33,-31.9 q -0.54,-1.29 0.5,-0.36 z"
         id="path75"
         style="fill:#3f3f3f;fill-opacity:0.9;stroke:none"
         transform="matrix(-1,0,0,1,2080.4353,0.02939672)" /><path
         d="m 638,760.07 c -2.54,-3.42 -7.52,-6.03 -5.44,-11.11 q 0.18,-0.44 0.61,-0.63 l 7.41,-3.3 q 1.29,-0.58 2.05,0.62 3.33,5.23 5.69,10.04 6.84,13.94 14.71,27.33 c 1.35,2.29 4.28,10.16 2.25,12.11 a 1.22,1.22 0 0 1 -1.77,-0.08 C 654.08,784.07 646.66,771.69 638,760.07 Z"
         id="path76"
         style="fill:#3f3f3f;fill-opacity:0.9;stroke:none"
         transform="matrix(-1,0,0,1,2080.4353,0.02939672)" /><path
         d="m 647.83,812.68 c -4,0.24 -7.71,-2.87 -9.11,-6.38 q -9.28,-23.27 -19.74,-45.33 a 2.05,2.05 0 0 1 0.92,-2.71 q 4.5,-2.28 9.62,-1.7 a 1.09,1.07 83.8 0 1 0.89,0.73 q 7.5,23.06 16.57,45.5 1.8,4.46 1.5,9.24 a 0.7,0.7 0 0 1 -0.65,0.65 z"
         id="path77"
         style="fill:#3f3f3f;fill-opacity:0.9;stroke:none"
         transform="matrix(-1,0,0,1,2080.4353,0.02939672)" /><path
         d="m 596.17,761.18 a 0.84,0.84 0 0 1 0.62,0.81 c -0.01,4.86 0.95,35.3 -2.71,37.67 q -0.49,0.32 -0.82,-0.17 -3.41,-5.21 -3.51,-8.49 -0.45,-15.62 -1.16,-31.23 -0.03,-0.72 0.66,-0.52 z"
         id="path78"
         style="fill:#3f3f3f;fill-opacity:0.9;stroke:none"
         transform="matrix(-1,0,0,1,2080.4353,0.02939672)" /><path
         d="m 621.09,814.28 c -4.35,1.91 -5.92,-3.77 -6.5,-6.56 q -4.52,-21.91 -8.88,-43.95 a 1.41,1.41 0 0 1 1.14,-1.66 l 6.8,-1.18 a 0.92,0.92 0 0 1 1.06,0.76 q 2.79,16.32 5.09,32.91 c 0.85,6.17 2.2,12.25 1.8,18.95 q -0.03,0.52 -0.51,0.73 z"
         id="path79"
         style="fill:#3f3f3f;fill-opacity:0.9;stroke:none"
         transform="matrix(-1,0,0,1,2080.4353,0.02939672)" /></g><g
       id="head"
       data-slug="head"
       transform="matrix(-0.26458333,0,0,0.26458333,400.40361,-25.534966)"
       style="fill:#3f3f3f;fill-opacity:0.9;stroke:none"><path
         d="m 1028.14,166.45 c 1.03,5.06 1.36,9.61 6.41,11.53 13.06,4.95 16.74,15.51 23.52,27.48 1.387,2.447 3.863,3.623 7.43,3.53 a 910.025,910.025 0 0 1 36.94,-0.25 c 6.23,0.09 9.27,-7.55 11.48,-12.3 4.31,-9.27 10.37,-15.83 20.28,-18.94 0.333,-0.1 0.603,-0.287 0.81,-0.56 1.92,-2.58 3.043,-5.43 3.37,-8.55 l 2.31,-1.51 a 0.977,0.977 0 0 1 0.99,-0.08 c 11.92,5.42 -3.35,35.31 -8.21,42.45 -0.761,1.11 -2.423,1.028 -3.06,-0.15 l -1.26,-2.32 c -0.133,-0.253 -0.32,-0.297 -0.56,-0.13 -0.34,0.24 -0.48,0.61 -0.42,1.11 0.86,7.64 0.75,16.87 -2.96,23.31 -0.173,0.3 0.839,0.041 -3.7,4.71 -3.34,3.436 -74.18,3.78 -75.48,-1.38 a 1.465,1.465 0 0 0 -0.55,-0.82 c -4.15,-2.97 -6.07,-7.95 -6.16,-12.39 -0.03,-1.68 0.18,-14.28 -0.53,-14.63 -0.207,-0.1 -0.33,-0.037 -0.37,0.19 -0.3,1.553 -1.183,2.597 -2.65,3.13 a 0.951,0.951 0 0 1 -1.07,-0.32 c -7.29,-9.56 -12.32,-22.18 -12.97,-33.54 -0.34,-6.04 1.797,-9.23 6.41,-9.57 z m 29.95,61.71 c 0.173,14.187 18.967,14.703 19.1,-1.37 0.03,-4.05 -0.38,-6.54 -4.68,-7.3 -4.2,-0.75 -11.87,-1.47 -13.85,2.91 -0.413,0.92 -0.603,2.84 -0.57,5.76 z m 31.71,-3.35 c 0.36,19.647 18.59,14.82 18.87,5.94 0.13,-3.9 1.32,-9.43 -2.88,-10.79 -4.25,-1.38 -16.12,-2.54 -15.99,4.85 z"
         id="path69" /><path
         d="m 418.91,167.68 c 3.92,-1.77 6.58,0.47 7.06,4.32 1.48,11.93 -4.92,26.67 -11.75,36.45 -2.21,3.17 -3.86,0.17 -4.74,-1.76 a 0.38,0.38 0 0 0 -0.73,0.16 c 0.02,8.31 1.01,17.01 -3.36,24.53 -0.167,0.293 -4.39,4.62 -10.799,9.508 C 371,259 353,257 333.145,240.091 c -4.736,-3.649 -5.925,-5.041 -8.805,-7.621 -5.66,-5.07 -5.28,-17.38 -4.47,-24.92 0.05,-0.51 -0.468,-0.892 -0.933,-0.687 a 0.653,0.653 0 0 0 -0.357,0.397 c -0.57,1.69 -2.24,4.05 -4.07,1.48 -6.2,-8.71 -16.02,-28.53 -11.19,-38.98 1.68,-3.627 3.733,-3.91 6.16,-0.85 a 182.853,182.853 0 0 1 3.78,23.29 1.02,1.02 0 0 0 1.56,0.77 c 2.79,-1.75 2.61,-18.93 2.63,-24.22 0.02,-4.53 1.12,-8.94 3.8,-13.1 4.36,-6.76 4.86,-11.51 5.57,-19.82 0.47,-5.53 4.34,-8.12 9.77,-8.21 6.39,-0.12 12.69,-0.07 19,-0.93 4.02,-0.55 7.4,-1.43 11.53,-0.75 6.7,1.1 13.44,1.64 20.22,1.62 4.607,-0.013 7.523,0.227 8.75,0.72 5.96,2.37 5.56,9.73 6.11,15.22 0.44,4.34 2.097,8.447 4.97,12.32 6.57,8.88 2.19,25.6 5.64,36.36 a 1.14,1.14 0 0 0 2.22,-0.23 c 0.887,-8.36 2.18,-16.45 3.88,-24.27 z"
         id="path88"
         style="fill:#3f3f3f;fill-opacity:0.9;stroke:none"
         transform="matrix(-1,0,0,1,2080.4353,0.02939672)" /></g><g
       id="hair"
       data-slug="hair"
       transform="matrix(-0.26458333,0,0,0.26458333,400.40361,-25.534966)"
       style="fill:#3f3f3f;fill-opacity:0.9;stroke:none"><path
         d="m 1138.38,168.39 q -0.49,4.68 -3.37,8.55 -0.31,0.41 -0.81,0.56 c -9.91,3.11 -15.97,9.67 -20.28,18.94 -2.21,4.75 -5.25,12.39 -11.48,12.3 q -18.46,-0.25 -36.94,0.25 -5.35,0.14 -7.43,-3.53 c -6.78,-11.97 -10.46,-22.53 -23.52,-27.48 -5.05,-1.92 -5.38,-6.47 -6.41,-11.53 q -6.64,-26.16 4.43,-48.88 c 8.13,-16.7 34.61,-21.41 51.58,-21.04 4.89,0.11 9.69,-0.11 14.42,0.85 18.79,3.8 33.17,8.5 39.34,28.66 q 6.38,20.88 0.47,42.35 z"
         id="path70" /><path
         d="m 418.91,167.68 q -2.55,11.73 -3.88,24.27 a 1.14,1.14 0 0 1 -2.22,0.23 c -3.45,-10.76 0.93,-27.48 -5.64,-36.36 q -4.31,-5.81 -4.97,-12.32 c -0.55,-5.49 -0.15,-12.85 -6.11,-15.22 q -1.84,-0.74 -8.75,-0.72 -10.17,0.03 -20.22,-1.62 c -4.13,-0.68 -7.51,0.2 -11.53,0.75 -6.31,0.86 -12.61,0.81 -19,0.93 -5.43,0.09 -9.3,2.68 -9.77,8.21 -0.71,8.31 -1.21,13.06 -5.57,19.82 -2.68,4.16 -3.78,8.57 -3.8,13.1 -0.02,5.29 0.16,22.47 -2.63,24.22 a 1.02,1.02 0 0 1 -1.56,-0.77 q -1.14,-11.78 -3.78,-23.29 -1.48,-6.99 -1.9,-9.7 c -2.49,-15.94 0.13,-40.13 13.53,-51.15 9.39,-7.72 28.53,-11.63 40.37,-11.51 4.2,0.05 8.74,-0.3 12.68,0.22 13.82,1.82 31.67,5.83 39.42,18.92 9.01,15.21 9.88,35.14 5.33,51.99 z"
         id="path89"
         style="fill:#3f3f3f;fill-opacity:0.9;stroke:none"
         transform="matrix(-1,0,0,1,2080.4353,0.02939672)" /></g><g
       id="chest"
       data-slug="chest"
       transform="matrix(0.26458333,0,0,0.26458333,-150.0449,-25.527188)"
       style="fill:#3f3f3f;fill-opacity:0.9;stroke:none"><path
         d="m 272.91,422.84 c -18.95,-17.19 -22,-57 -12.64,-78.79 5.57,-12.99 26.54,-24.37 39.97,-25.87 q 20.36,-2.26 37.02,0.75 c 9.74,1.76 16.13,15.64 18.41,25.04 3.99,16.48 3.23,31.38 1.67,48.06 q -1.35,14.35 -2.05,16.89 c -6.52,23.5 -38.08,29.23 -58.28,24.53 -9.12,-2.12 -17.24,-4.38 -24.1,-10.61 z"
         id="path1-9" /><path
         d="m 416.04,435 c -15.12,0.11 -34.46,-6.78 -41.37,-21.48 q -1.88,-3.99 -2.84,-12.18 c -2.89,-24.41 -5.9,-53.65 8.44,-74.79 4.26,-6.26 10.49,-7.93 18.36,-8.56 q 11.66,-0.92 23.32,-0.35 c 10.58,0.53 18.02,2.74 26.62,7.87 12.81,7.65 19.73,14.52 22.67,29.75 4.94,25.57 0.24,64.14 -28.21,74.97 q -12.26,4.67 -26.99,4.77 z"
         id="path2-4" /></g><g
       id="obliques"
       data-slug="obliques"
       transform="matrix(0.26458333,0,0,0.26458333,-150.0449,-25.527188)"
       style="fill:#3f3f3f;fill-opacity:0.9;stroke:none"><path
         d="m 264.21,435.53 c -4.88,-3.13 -5.75,-12.11 -5.39,-17.36 q 0.03,-0.53 0.51,-0.75 1.8,-0.84 3.43,0.85 10.05,10.45 22.57,16.9 c 3.64,1.89 5.54,3.62 4.79,7.8 q -0.42,2.35 -2.82,1.87 -12.45,-2.49 -23.09,-9.31 z"
         id="path3-8" /><path
         d="m 287.33,452.44 c -4.05,4.46 -10.38,11.38 -16.28,14.3 a 0.84,0.83 51.1 0 1 -0.9,-0.1 c -6.29,-5.17 -12.54,-18.97 -14.21,-25.09 q -0.91,-3.34 0.85,-8.81 0.12,-0.39 0.35,-0.05 c 2.41,3.65 4.59,7.74 8.67,9.76 q 10.18,5.05 21.27,9.01 a 0.61,0.61 0 0 1 0.25,0.98 z"
         id="path4-8" /><path
         d="m 297.3,487.82 c -7.36,-4.23 -16.68,-11.37 -20.55,-17.57 q -0.32,-0.5 0.09,-0.92 8.72,-9.04 19.84,-17.87 1.46,-1.17 2.81,-1.67 a 0.44,0.44 0 0 1 0.59,0.43 c -0.28,10.08 -0.4,20.42 0.65,30.43 q 0.34,3.26 -0.68,6.15 a 1.9,1.9 0 0 1 -2.75,1.02 z"
         id="path5-2" /><path
         d="m 257.35,456.18 13.68,16.63 a 1.86,1.82 22.9 0 1 0.4,0.95 c 0.59,5.4 -2.02,12.71 -3.8,17.56 q -0.3,0.84 -0.84,0.13 -11.85,-15.55 -9.77,-35.17 0.04,-0.45 0.33,-0.1 z"
         id="path6-4" /><path
         d="m 271.69,494.07 a 1.53,1.52 -61.8 0 1 -0.49,-1.64 l 4.2,-13.58 a 0.98,0.98 0 0 1 1.51,-0.5 c 3.2,2.32 21.89,14.05 22.26,16.7 q 1.15,8.32 0.66,16.79 a 0.9,0.9 0 0 1 -1.34,0.73 q -14.24,-8.05 -26.8,-18.5 z"
         id="path7-5" /><path
         d="m 299.35,544.62 c -7.52,-6.03 -16.15,-13.43 -24.23,-21.24 -6.93,-6.7 -6,-17.19 -4.88,-26.06 a 0.44,0.44 0 0 1 0.72,-0.28 q 13.31,11.88 28.41,21.38 0.43,0.27 0.6,0.75 c 2.33,6.49 0.95,18.37 -0.07,25.23 q -0.09,0.59 -0.55,0.22 z"
         id="path8-5" /><path
         d="m 299.09,575.53 c -7.98,-3.65 -27.57,-15.86 -28.06,-26.2 q -0.57,-11.91 0.46,-24.3 a 0.36,0.36 0 0 1 0.67,-0.15 q 0.84,1.36 2.17,2.54 10.59,9.45 21.68,18.31 c 4.37,3.49 4.34,6.46 4.16,11.74 q -0.3,8.82 -0.42,17.64 -0.01,0.72 -0.66,0.42 z"
         id="path9-1" /><path
         d="m 308.17,657.58 c -7.39,-0.13 -12.41,-4.13 -17.14,-9.39 q -11.86,-13.22 -23.92,-26.37 -0.33,-0.36 -0.33,-0.85 0.09,-23.18 1.81,-46.22 0.53,-7.13 2.49,-14.41 a 0.71,0.71 0 0 1 1.2,-0.3 q 11.54,12.06 25.82,21.1 3.36,2.12 3.62,5.17 2.06,23.67 3.86,47.36 c 0.58,7.62 2.31,13.36 4.43,20.82 q 0.47,1.66 -0.96,2.79 -0.39,0.31 -0.88,0.3 z"
         id="path10-7" /><path
         d="m 438.7,444.36 c -2.09,-4.03 -0.13,-6.83 3.63,-8.81 10.22,-5.36 16.79,-11 24.23,-18.07 a 1.71,1.71 0 0 1 2.89,1.12 c 0.33,4.74 -0.81,14.39 -5.53,17.22 -4.68,2.82 -18.74,10.02 -24.39,9.14 q -0.57,-0.09 -0.83,-0.6 z"
         id="path11-1" /><path
         d="m 457.39,466.73 c -3.72,-1.02 -13.2,-10.29 -16.5,-14.49 a 0.52,0.52 0 0 1 0.24,-0.81 q 10.94,-3.75 21.31,-9 c 3.96,-2.01 6.3,-5.98 8.57,-9.58 q 0.38,-0.59 0.55,0.09 c 0.82,3.33 1.54,6.17 0.38,9.58 -2.55,7.44 -7.62,18.79 -13.66,24.01 a 0.96,0.96 0 0 1 -0.89,0.2 z"
         id="path12-1" /><path
         d="m 428.43,487.22 c -1.01,-1.79 -0.82,-4.55 -0.71,-6.72 q 0.78,-15.08 0.48,-30.27 -0.01,-0.59 0.55,-0.4 1.72,0.59 3.02,1.64 11.58,9.37 18.82,16.95 c 3.86,4.05 -16.2,17.42 -19.56,19.48 a 1.87,1.86 59.6 0 1 -2.6,-0.68 z"
         id="path13-5" /><path
         d="m 470.76,456.28 a 0.25,0.25 0 0 1 0.44,0.13 q 2.03,19.67 -9.8,35.22 -0.37,0.48 -0.6,-0.08 c -1.37,-3.29 -5.86,-16.13 -3.51,-18.91 q 6.3,-7.47 13.47,-16.36 z"
         id="path14-2" /><path
         d="m 452.27,478.5 c 1.13,0.49 4.28,12.47 4.78,14.38 q 0.14,0.5 -0.23,0.88 -1.29,1.35 -2.65,2.41 -10.44,8.12 -21.76,14.97 -1.49,0.9 -2.91,1.33 a 0.81,0.81 0 0 1 -1.05,-0.71 q -0.73,-8.62 0.67,-17.15 0.08,-0.47 0.44,-0.8 c 1.74,-1.6 21.96,-15.73 22.34,-15.51 a 0.58,0.03 31 0 0 0.37,0.2 z"
         id="path15-7" /><path
         d="m 428.22,519.14 q 0.11,-0.36 0.43,-0.56 15.3,-9.66 28.83,-21.69 a 0.43,0.42 -22.6 0 1 0.71,0.29 c 0.51,8.26 2.25,18.67 -4.46,25.4 q -11.8,11.84 -25.03,22.09 -0.43,0.34 -0.49,-0.2 c -0.75,-6.82 -1.97,-18.92 0.01,-25.33 z"
         id="path16-6" /><path
         d="m 456.54,524.55 a 0.04,0.04 0 0 1 0.07,0.02 q 1.52,13.67 0.41,27.4 -0.04,0.47 -0.28,0.88 c -4.97,8.3 -18.23,19.62 -27.88,22.63 q -0.57,0.17 -0.58,-0.43 -0.05,-10.31 -0.27,-20.53 -0.1,-4.8 2.63,-7.09 c 8.54,-7.13 18.56,-14.62 25.9,-22.88 z"
         id="path17-1" /><path
         d="m 418.89,657.11 q -1.12,-1.67 -0.43,-3.63 3.27,-9.38 4.04,-18.23 1.97,-22.81 3.58,-45.65 c 0.16,-2.32 0.72,-6.41 2.84,-7.71 q 14.97,-9.23 27.16,-21.93 0.41,-0.42 0.71,0.08 1.29,2.15 1.53,4.2 3.23,27.74 3.13,56.8 a 1.3,1.28 -24.5 0 1 -0.33,0.86 q -12.74,13.93 -25.55,27.75 c -4.8,5.17 -9.09,7.87 -15.73,7.96 q -0.61,0.01 -0.95,-0.5 z"
         id="path18-4" /></g><g
       id="abs"
       data-slug="abs"
       transform="matrix(0.26458333,0,0,0.26458333,-150.0449,-25.527188)"
       style="fill:#3f3f3f;fill-opacity:0.9;stroke:none"><path
         d="m 311.02,531.71 a 0.23,0.23 0 0 1 -0.19,-0.21 q -0.39,-10.47 1.9,-20.76 c 1.26,-5.69 7.66,-9.9 13.1,-12.9 9.09,-5.01 18.93,-11.15 28.56,-14.92 a 1.24,1.21 -42.6 0 1 0.94,0.03 c 3.28,1.52 4.78,3.87 4.82,7.68 q 0.13,13.16 -0.15,26.31 c -0.08,3.85 0.78,8.39 -0.87,13.1 q -0.17,0.46 -0.59,0.72 -2.65,1.65 -4.29,1.82 -21.06,2.22 -43.23,-0.87 z"
         id="path19-2" /><path
         d="m 321,577.76 c -5.17,-0.33 -8.71,-0.44 -10,-6.26 q -3.2,-14.44 -0.59,-27.83 0.11,-0.53 0.64,-0.63 c 7.58,-1.44 13.62,-2.45 22.45,-4.56 q 11.5,-2.76 23.94,-1.88 c 3.67,0.26 3.3,3.46 3.4,6.21 q 0.46,12.55 -0.33,26.94 -0.25,4.41 -1.81,8.08 -0.21,0.49 -0.73,0.6 -1.39,0.28 -3.22,0.29 -16.89,0.14 -33.75,-0.96 z"
         id="path20-3" /><path
         d="m 347.73,429.25 c 7.46,-3.61 10.5,6.27 10.99,11.52 0.48,5.06 3.46,30.61 -2.78,32.93 q -4.17,1.55 -6.89,3.33 -17.56,11.54 -35.88,21.46 a 1.6,1.59 -21.9 0 1 -2.3,-0.98 c -2.87,-10.41 -10.59,-43.96 1.66,-50.95 11.3,-6.45 23.96,-11.86 35.2,-17.31 z"
         id="path21-2" /><path
         d="M 350.35,712.81 C 321.2,702.88 312.37,612.12 310.88,586.2 a 0.99,0.99 0 0 1 0.33,-0.8 c 3.58,-3.26 27.61,-1.47 34.62,-0.93 4.41,0.34 15.27,1.31 15.26,7.53 -0.05,40.77 0.64,82.05 -1.96,122.72 a 1.29,1.29 0 0 1 -1.86,1.08 c -2.3,-1.14 -4.12,-2.04 -6.92,-2.99 z"
         id="path22-2" /><path
         d="m 371.94,473.31 c -5.46,-2.59 -2.97,-24.26 -2.77,-29.56 0.25,-6.8 2.41,-18.63 12.64,-13.8 q 16.26,7.67 32.34,15.72 6.18,3.1 7.13,10.05 c 0.58,4.26 1.35,8.49 1.07,12.72 q -0.84,12.55 -4.33,26.56 -0.54,2.16 -1.1,3.44 -0.25,0.58 -0.81,0.31 c -15.78,-7.29 -30.79,-19.08 -44.17,-25.44 z"
         id="path23-1" /><path
         d="m 382.57,533.27 c -4.17,-0.18 -9.56,-0.3 -13.15,-2.69 q -0.17,-0.11 -0.24,-0.31 c -1.82,-5.55 -0.86,-11.17 -0.96,-15.66 -0.18,-8.4 -0.78,-17.36 0.06,-25.71 0.29,-2.85 1.88,-4.42 4.15,-5.79 q 0.42,-0.26 0.91,-0.19 1.71,0.25 3.21,1.03 12.48,6.44 24.75,13.26 c 4.96,2.75 12.21,7.02 13.72,12.41 q 2.93,10.56 2.39,21.49 a 0.77,0.76 -1.8 0 1 -0.67,0.71 q -16.89,2.18 -34.17,1.45 z"
         id="path24-6" /><path
         d="m 373.75,578.69 c -2.47,0 -4.31,0.22 -5,-2.7 -1.8,-7.7 -3.05,-34.29 -0.19,-38.81 q 0.27,-0.43 0.77,-0.47 13.14,-1.24 25.77,1.83 c 8.41,2.04 14.51,3.01 21.85,4.36 a 1.29,1.28 0.6 0 1 1.05,1.07 q 2.16,14.12 -0.73,28.07 c -1.08,5.24 -5.22,5.26 -10.36,5.63 q -14.26,1.04 -33.16,1.02 z"
         id="path25-8" /><path
         d="m 416.32,584.73 q 1.14,0.41 1.07,1.62 c -1.62,26.44 -9.96,116.68 -40.43,126.74 -2.27,0.75 -4.15,2.12 -6.35,2.73 q -1.18,0.33 -1.3,-0.89 -0.86,-9.2 -1.06,-17.75 c -0.83,-35.67 -0.91,-71.2 -1.01,-106.88 q 0,-0.5 0.31,-0.89 c 4.95,-6.46 41.69,-7.25 48.77,-4.68 z"
         id="path26-5" /></g><g
       id="biceps"
       data-slug="biceps"
       transform="matrix(0.26458333,0,0,0.26458333,-150.0449,-25.527188)"
       style="fill:#3f3f3f;fill-opacity:0.9;stroke:none"><path
         d="m 189.52,492.51 c -2.43,0.62 -7.38,0.57 -7.51,-3.08 -0.56,-16.01 -0.42,-35.49 5.11,-50.26 3.19,-8.54 13.89,-30.22 23.27,-32.72 10.08,-2.68 12.68,16.59 12.6,22.8 -0.22,15.98 -7.51,34.79 -15.05,48.71 -4.29,7.94 -9.95,12.38 -18.42,14.55 z"
         id="path27-7" /><path
         d="m 526.69,486.31 c -9.9,-8.61 -17.75,-33.21 -20.65,-47.73 -1.41,-7.06 -1.34,-29.61 8.58,-32.16 10.33,-2.66 23.81,25.34 26.6,32.91 q 2.6,7.04 3.6,16.13 1.62,14.66 1.66,32.28 c 0.03,11.04 -16.45,1.48 -19.79,-1.43 z"
         id="path28-6" /></g><g
       id="triceps-1"
       data-slug="triceps"
       transform="matrix(0.26458333,0,0,0.26458333,-150.0449,-25.527188)"
       style="fill:#3f3f3f;fill-opacity:0.9;stroke:none" /><g
       id="quadriceps"
       data-slug="quadriceps"
       transform="matrix(0.26458333,0,0,0.26458333,-150.0449,-25.527188)"
       style="fill:#3f3f3f;fill-opacity:0.9;stroke:none"><path
         d="m 292.42,935.6 q -0.95,-0.52 -1.57,-1.4 -4.1,-5.79 -7,-13.53 -7.8,-20.79 -13.3,-42.33 c -9.06,-35.53 -19.33,-71.36 -25.03,-107.59 -5.33,-33.86 4,-74.19 20.7,-103.37 q 0.35,-0.62 0.53,0.07 c 14.44,55.57 39.03,107.94 41.45,165.34 1.11,26.34 0.66,52.96 -3.6,79.03 -0.63,3.83 -4.73,27.81 -12.18,23.78 z"
         id="path46-7" /><path
         d="m 275.11,942.93 q -2.42,-2.18 -3.57,-5.24 c -3.98,-10.61 -7.68,-21.02 -12.81,-31.32 -7.85,-15.76 -10.77,-34.56 -13.2,-51.46 -2.11,-14.63 -2.31,-31.47 -3.93,-47.18 -0.22,-2.16 -1.04,-12.78 0.46,-13.79 q 1.36,-0.92 2.08,0.55 c 1.5,3.08 3.12,6.12 3.66,9.58 q 8.21,52.38 26.36,102.15 c 2.87,7.87 9.98,30.5 1.85,36.74 a 0.71,0.7 -42.5 0 1 -0.9,-0.03 z"
         id="path47-9" /><path
         d="m 322.69,945.72 c -3.73,6.14 -10.77,-2.43 -12.6,-5.6 -3.16,-5.47 -2.62,-14.93 -1.78,-20.81 4.03,-28.09 5.6,-52.81 3.48,-80.78 q -0.06,-0.79 0.28,-0.08 15.77,32.83 14.26,68.9 c -0.4,9.54 -2.94,22.48 -2.91,34.13 q 0.01,3.02 -0.73,4.24 z"
         id="path48-3" /><path
         d="m 437.82,933.52 c -8.9,14.18 -15.15,-26.74 -15.46,-29.25 q -5.26,-43.04 -1.19,-86.08 c 4.9,-51.8 26.91,-99.32 40.38,-150.92 q 0.18,-0.66 0.5,-0.06 c 17.25,31.67 25.39,68.28 20.54,104.36 q -2.29,17.02 -8.71,42.76 -7.56,30.25 -15.2,60.47 -6.13,24.25 -15.06,47.61 -1.83,4.79 -5.8,11.11 z"
         id="path49-1" /><path
         d="m 451.79,942.6 c -9.95,-10.01 4.97,-42.91 8.94,-55.41 Q 473.28,847.66 480,806.72 c 0.49,-2.97 2.64,-12.34 5.41,-13.28 a 0.83,0.83 0 0 1 1.09,0.64 q 0.74,4 0.45,7.92 c -1.99,26.52 -3.37,58.99 -11.01,87.73 q -2.53,9.5 -7.46,18.8 c -4.38,8.24 -6.97,16.72 -10.08,25.27 q -1.66,4.54 -4.55,8.63 a 1.35,1.35 0 0 1 -2.06,0.17 z"
         id="path50-9" /><path
         d="m 406.69,946.81 c -3.24,-2.77 -1.48,-10.64 -2.01,-14.71 q -2.23,-17.18 -2.57,-22.16 c -1.75,-25.07 3.61,-49.11 13.98,-71.92 q 0.23,-0.51 0.2,0.05 c -1.2,19.15 -1.28,38.18 0.83,57.38 q 1.68,15.4 3.39,30.8 c 0.43,3.92 -0.31,9.71 -2.09,13.33 -1.62,3.28 -7.58,10.77 -11.73,7.23 z"
         id="path51-8" /></g><g
       id="knees"
       data-slug="knees"
       transform="matrix(0.26458333,0,0,0.26458333,-150.0449,-25.527188)"
       style="fill:#3f3f3f;fill-opacity:0.9;stroke:none"><path
         d="m 297.69,1008.37 c -7.27,7.29 -16.34,3.42 -19.64,-5.18 q -6.18,-16.11 -9.57,-30.68 c -1.99,-8.6 -2.24,-19.68 9.72,-19.91 q 13.12,-0.24 26.05,2.15 1.71,0.32 3.29,1.02 a 1.17,1.15 4.2 0 1 0.63,0.72 c 3.17,10.27 2.5,23.36 0.05,33.69 q -2.37,10.01 -10.53,18.19 z"
         id="path52-6" /><path
         d="m 288.03,1059.54 c -6.99,-5.81 13.75,-46.43 17.3,-53.91 q 7.3,-15.38 10.9,-32.01 c 0.74,-3.42 2,-6.31 4.18,-8.64 a 1.36,1.35 54.7 0 1 2.23,0.39 c 3.97,9.09 1.66,13.86 -1.67,24.65 q -10.23,33.19 -27.2,63.57 -1.8,3.23 -4.2,5.84 a 1.13,1.12 -49 0 1 -1.54,0.11 z"
         id="path53-5" /><path
         d="M 430.44,1008.31 C 417.52,995.69 416.1,974.82 419.52,958 c 0.31,-1.53 1.09,-2.53 2.73,-2.86 q 11.44,-2.25 23.08,-2.59 c 14.13,-0.42 17.31,5.67 14.54,18.63 q -3.13,14.69 -9.12,30.37 c -3.45,9.03 -11.63,15.25 -20.31,6.76 z"
         id="path54-0" /><path
         d="m 438.96,1059.52 q -2.25,-1.89 -3.8,-4.64 -20.15,-35.92 -31.06,-75.66 -2.11,-7.68 1.95,-14.16 a 1.16,1.16 0 0 1 1.91,-0.08 c 2.26,3.06 3.4,5.4 4.26,9.37 3.98,18.54 10.94,32.53 20.07,51.09 3.51,7.14 11.38,26.16 8.5,33.61 a 1.16,1.16 0 0 1 -1.83,0.47 z"
         id="path55-2" /></g></g></svg>
